<svg width="300" height="102" viewBox="0 0 300 102" fill="none" xmlns="http://www.w3.org/2000/svg">
<rect width="300" height="101.942" rx="30" fill="white"/>
<rect x="1.5" y="1.5" width="297" height="98.9417" rx="28.5" stroke="url(#paint0_linear_6930:3736)" stroke-opacity="0.7" stroke-width="3"/>
<g clip-path="url(#clip0_6930:3736)">
<path d="M81.0437 17.6689C78.0934 17.873 74.6451 19.7615 72.6356 22.2206C70.8025 24.4515 69.2945 27.7649 69.8824 30.985C73.106 31.0853 76.4367 29.1519 78.3667 26.6512C80.1721 24.3235 81.5383 21.0308 81.0437 17.6689Z" fill="url(#paint1_linear_6930:3736)" fill-opacity="0.5"/>
<path d="M92.7031 36.2356C89.8704 32.6835 85.8894 30.6221 82.1298 30.6221C77.1665 30.6221 75.0671 32.9982 71.6187 32.9982C68.0632 32.9982 65.3619 30.629 61.0696 30.629C56.8534 30.629 52.364 33.2057 49.5175 37.6121C45.5158 43.8171 46.2006 55.4834 52.6857 65.4203C55.0065 68.9758 58.1055 72.9741 62.1591 73.0087C65.7666 73.0433 66.7834 70.6948 71.6706 70.6706C76.5578 70.6429 77.4847 73.0398 81.0852 73.0018C85.1423 72.9707 88.4108 68.54 90.7316 64.9845C92.3952 62.4354 93.0144 61.1522 94.3045 58.2745C84.9209 54.7017 83.4164 41.3579 92.7031 36.2356Z" fill="url(#paint2_linear_6930:3736)" fill-opacity="0.5"/>
</g>
<path d="M141.198 66.975H144.048L145.598 62.625H151.973L153.523 66.975H156.698L150.598 49.825H147.448L141.198 66.975ZM148.723 53.475H148.798L151.198 60.325H146.323L148.723 53.475ZM158.832 70.7H161.707V66.475C162.332 66.825 163.282 67.2 164.707 67.2C168.207 67.2 170.532 65.3 170.532 60.475V60.15C170.532 55.425 168.107 53.875 165.432 53.875C163.807 53.875 162.482 54.425 161.707 55.2H161.607V54.1H158.832V70.7ZM164.307 65.025C163.182 65.025 162.207 64.675 161.707 64.275V56.975C162.207 56.625 163.182 56.225 164.407 56.225C166.432 56.225 167.532 57.15 167.532 60.325V60.85C167.532 63.975 166.357 65.025 164.307 65.025ZM173.261 70.7H176.136V66.475C176.761 66.825 177.711 67.2 179.136 67.2C182.636 67.2 184.961 65.3 184.961 60.475V60.15C184.961 55.425 182.536 53.875 179.861 53.875C178.236 53.875 176.911 54.425 176.136 55.2H176.036V54.1H173.261V70.7ZM178.736 65.025C177.611 65.025 176.636 64.675 176.136 64.275V56.975C176.636 56.625 177.611 56.225 178.836 56.225C180.861 56.225 181.961 57.15 181.961 60.325V60.85C181.961 63.975 180.786 65.025 178.736 65.025ZM198.657 67.275C202.807 67.275 204.782 65.25 204.782 62C204.782 58.95 203.157 57.825 200.457 57.05L198.857 56.55C197.157 56.075 196.657 55.5 196.657 54.15C196.657 52.775 197.657 52.025 199.457 52.025C201.357 52.025 202.757 52.425 203.832 52.875V50.475C202.882 49.975 201.657 49.55 199.407 49.55C195.532 49.55 193.657 51.525 193.657 54.425C193.657 57.325 195.132 58.625 197.557 59.3L199.182 59.75C201.057 60.325 201.682 60.875 201.682 62.3C201.682 63.85 200.707 64.8 198.407 64.8C196.532 64.8 194.907 64.35 193.532 63.75V66.175C194.707 66.8 196.407 67.275 198.657 67.275ZM211.963 67.125C213.163 67.125 213.863 66.85 214.363 66.6V64.675C213.913 64.8 213.388 64.875 212.888 64.875C211.538 64.875 211.138 64.475 211.138 63.4V56.35H214.213V54.1H211.138V51.075H208.313V54.1H206.513V56.35H208.313V63.8C208.313 66.225 209.738 67.125 211.963 67.125ZM222.362 67.2C225.962 67.2 228.462 64.825 228.462 60.675V60.325C228.462 56.225 226.237 53.875 222.387 53.875C218.762 53.875 216.262 56.275 216.262 60.4V60.8C216.262 64.825 218.437 67.2 222.362 67.2ZM222.412 65.025C220.612 65.025 219.212 64.125 219.212 60.8V60.2C219.212 57.425 220.362 56.05 222.337 56.05C224.087 56.05 225.462 56.95 225.462 60.3V60.925C225.462 63.7 224.337 65.025 222.412 65.025ZM231.122 66.975H233.997V57.4C234.822 56.875 235.972 56.55 237.122 56.55C237.422 56.55 237.847 56.575 238.172 56.625V54.075C238.047 54.025 237.722 54 237.372 54C236.022 54 234.697 54.675 233.997 55.6H233.897V54.1H231.122V66.975ZM246.196 67.2C248.371 67.2 249.871 66.575 250.746 66V64C249.621 64.575 248.421 64.95 246.771 64.95C244.321 64.95 242.946 64 242.771 61.325H251.171V60.125C251.171 56.025 249.521 53.9 245.721 53.9C242.446 53.9 239.821 56.025 239.821 60.35V60.7C239.821 64.775 241.921 67.2 246.196 67.2ZM245.671 56.025C247.346 56.025 248.246 56.925 248.246 59.35H242.771C242.971 56.725 244.346 56.025 245.671 56.025Z" fill="url(#paint3_linear_6930:3736)" fill-opacity="0.5"/>
<path d="M139.53 37.328H142.986C146.506 37.328 148.154 35.328 148.154 31.872V31.536C148.154 28.032 146.282 26.368 142.954 26.368H139.53V37.328ZM141.178 35.952V27.744H142.826C145.098 27.744 146.378 28.656 146.378 31.536V32.08C146.378 34.832 145.322 35.952 143.018 35.952H141.178ZM153.212 37.472C155.436 37.472 156.988 35.936 156.988 33.344V33.104C156.988 30.528 155.596 29.008 153.228 29.008C150.956 29.008 149.42 30.56 149.42 33.152V33.424C149.42 35.968 150.796 37.472 153.212 37.472ZM153.228 36.24C152.012 36.24 151.036 35.6 151.036 33.44V33.008C151.036 31.216 151.82 30.272 153.196 30.272C154.38 30.272 155.34 30.912 155.34 33.072V33.504C155.34 35.296 154.556 36.24 153.228 36.24ZM160.171 37.328H161.755L163.499 31.52H163.563L165.307 37.328H166.859L169.147 29.168H167.675L166.139 35.296H166.075L164.283 29.168H162.939L161.179 35.296H161.099L159.547 29.168H157.883L160.171 37.328ZM170.525 37.328H172.093V30.864C172.653 30.592 173.437 30.352 174.125 30.352C175.357 30.352 175.613 30.72 175.613 31.616V37.328H177.197V31.248C177.197 29.664 176.429 29.008 174.845 29.008C173.853 29.008 172.797 29.392 172.109 29.872H172.045V29.168H170.525V37.328ZM179.307 37.328H180.875V25.648H179.307V37.328ZM186.368 37.472C188.592 37.472 190.144 35.936 190.144 33.344V33.104C190.144 30.528 188.752 29.008 186.384 29.008C184.112 29.008 182.576 30.56 182.576 33.152V33.424C182.576 35.968 183.952 37.472 186.368 37.472ZM186.384 36.24C185.168 36.24 184.192 35.6 184.192 33.44V33.008C184.192 31.216 184.976 30.272 186.352 30.272C187.536 30.272 188.496 30.912 188.496 33.072V33.504C188.496 35.296 187.712 36.24 186.384 36.24ZM193.791 37.472C194.847 37.472 195.519 37.12 195.903 36.64H195.999L196.143 37.328H197.439V31.424C197.439 29.776 196.367 29.008 194.527 29.008C193.519 29.008 192.687 29.168 191.935 29.472V30.576C192.431 30.464 193.103 30.336 193.903 30.336C195.343 30.336 195.855 30.608 195.855 31.824V32.528L193.807 32.768C192.223 32.976 191.263 33.696 191.263 35.152C191.263 36.736 192.319 37.472 193.791 37.472ZM194.207 36.32C193.391 36.32 192.863 35.92 192.863 35.088C192.863 34.24 193.295 33.888 194.159 33.792L195.855 33.616V35.792C195.535 36.096 194.879 36.32 194.207 36.32ZM202.39 37.472C203.462 37.472 204.246 37.152 204.726 36.672H204.806L204.95 37.328H206.294V25.648H204.71V29.504C204.326 29.28 203.67 29.008 202.678 29.008C200.582 29.008 199.062 30.304 199.062 33.296V33.504C199.062 36.48 200.806 37.472 202.39 37.472ZM202.934 36.224C201.59 36.224 200.678 35.584 200.678 33.44V33.104C200.678 31.024 201.526 30.32 202.918 30.32C203.686 30.32 204.39 30.496 204.71 30.768V35.616C204.374 35.872 203.782 36.224 202.934 36.224ZM215.899 37.472C218.123 37.472 219.675 35.936 219.675 33.344V33.104C219.675 30.528 218.283 29.008 215.915 29.008C213.643 29.008 212.107 30.56 212.107 33.152V33.424C212.107 35.968 213.483 37.472 215.899 37.472ZM215.915 36.24C214.699 36.24 213.723 35.6 213.723 33.44V33.008C213.723 31.216 214.507 30.272 215.883 30.272C217.067 30.272 218.027 30.912 218.027 33.072V33.504C218.027 35.296 217.243 36.24 215.915 36.24ZM221.29 37.328H222.858V30.864C223.418 30.592 224.202 30.352 224.89 30.352C226.122 30.352 226.378 30.72 226.378 31.616V37.328H227.962V31.248C227.962 29.664 227.194 29.008 225.61 29.008C224.618 29.008 223.562 29.392 222.874 29.872H222.81V29.168H221.29V37.328ZM236.932 37.408C237.684 37.408 238.052 37.248 238.388 37.104V36.048C238.068 36.096 237.716 36.144 237.38 36.144C236.5 36.144 236.26 35.872 236.26 35.136V30.432H238.228V29.168H236.26V27.248H234.676V29.168H233.524V30.432H234.676V35.36C234.676 36.848 235.572 37.408 236.932 37.408ZM239.931 37.328H241.499V30.864C242.059 30.592 242.843 30.352 243.531 30.352C244.763 30.352 245.019 30.72 245.019 31.616V37.328H246.603V31.248C246.603 29.664 245.835 29.008 244.251 29.008C243.259 29.008 242.251 29.376 241.579 29.84H241.499V25.648H239.931V37.328ZM252.137 37.472C253.497 37.472 254.441 37.056 254.953 36.688V35.584C254.201 35.92 253.497 36.176 252.425 36.176C250.825 36.176 249.913 35.552 249.801 33.68H255.209V32.912C255.209 30.336 254.137 29.008 251.833 29.008C249.865 29.008 248.185 30.336 248.185 33.136V33.344C248.185 35.904 249.497 37.472 252.137 37.472ZM251.769 30.256C252.953 30.256 253.561 30.88 253.561 32.528H249.801C249.929 30.704 250.905 30.256 251.769 30.256Z" fill="url(#paint4_linear_6930:3736)" fill-opacity="0.5"/>
<defs>
<linearGradient id="paint0_linear_6930:3736" x1="-1.11759e-06" y1="50.9709" x2="300" y2="50.9709" gradientUnits="userSpaceOnUse">
<stop stop-color="#6B40FF"/>
<stop offset="0.494792" stop-color="#1F1AFF"/>
<stop offset="0.494892" stop-color="#221EFF"/>
<stop offset="1" stop-color="#8099FF"/>
</linearGradient>
<linearGradient id="paint1_linear_6930:3736" x1="69.7534" y1="24.3288" x2="81.1459" y2="24.3288" gradientUnits="userSpaceOnUse">
<stop stop-color="#6B40FF"/>
<stop offset="0.494792" stop-color="#1F1AFF"/>
<stop offset="0.494892" stop-color="#221EFF"/>
<stop offset="1" stop-color="#8099FF"/>
</linearGradient>
<linearGradient id="paint2_linear_6930:3736" x1="47.0354" y1="51.8156" x2="94.3045" y2="51.8156" gradientUnits="userSpaceOnUse">
<stop stop-color="#6B40FF"/>
<stop offset="0.494792" stop-color="#1F1AFF"/>
<stop offset="0.494892" stop-color="#221EFF"/>
<stop offset="1" stop-color="#8099FF"/>
</linearGradient>
<linearGradient id="paint3_linear_6930:3736" x1="140" y1="59" x2="253" y2="59" gradientUnits="userSpaceOnUse">
<stop stop-color="#6B40FF"/>
<stop offset="0.494792" stop-color="#1F1AFF"/>
<stop offset="0.494892" stop-color="#221EFF"/>
<stop offset="1" stop-color="#8099FF"/>
</linearGradient>
<linearGradient id="paint4_linear_6930:3736" x1="122" y1="36.3786" x2="272" y2="36.3786" gradientUnits="userSpaceOnUse">
<stop stop-color="#6B40FF"/>
<stop offset="0.494792" stop-color="#1F1AFF"/>
<stop offset="0.494892" stop-color="#221EFF"/>
<stop offset="1" stop-color="#8099FF"/>
</linearGradient>
<clipPath id="clip0_6930:3736">
<rect width="55.3398" height="55.3398" fill="white" transform="translate(43 17.6689)"/>
</clipPath>
</defs>
</svg>
