<svg width="129" height="45" viewBox="0 0 129 45" fill="none" xmlns="http://www.w3.org/2000/svg">
<path d="M64.6377 12.6486V20.0678H74.5662V24.7738H64.6377V32.617H75.8337V37.4502H58.7228V7.81543H75.8337V12.6486H64.6377ZM87.2505 32.4474H100.517V37.4502H80.4061V32.8714L93.5878 12.8605H80.4061V7.85783H100.517V12.4366L87.2505 32.4474ZM129 7.85783L119.029 27.148V37.4502H113.114V27.148L103.101 7.85783H109.777L116.114 21.3821L122.409 7.85783H129Z" fill="white"/>
<path d="M64.6377 12.6486V20.0678H74.5662V24.7738H64.6377V32.617H75.8337V37.4502H58.7228V7.81543H75.8337V12.6486H64.6377ZM87.2505 32.4474H100.517V37.4502H80.4061V32.8714L93.5878 12.8605H80.4061V7.85783H100.517V12.4366L87.2505 32.4474ZM129 7.85783L119.029 27.148V37.4502H113.114V27.148L103.101 7.85783H109.777L116.114 21.3821L122.409 7.85783H129Z" fill="url(#paint0_linear)"/>
<path d="M25.3548 21.7692C25.3312 20.8128 25.8342 19.9202 26.6647 19.4449L41.7012 10.8385C43.4713 9.82537 45.6807 11.0699 45.731 13.1084C45.7556 14.1081 45.2243 15.0395 44.3511 15.5273L29.2256 23.9763C27.5153 24.9316 25.4031 23.7273 25.3548 21.7692Z" fill="white"/>
<path d="M25.3548 21.7692C25.3312 20.8128 25.8342 19.9202 26.6647 19.4449L41.7012 10.8385C43.4713 9.82537 45.6807 11.0699 45.731 13.1084C45.7556 14.1081 45.2243 15.0395 44.3511 15.5273L29.2256 23.9763C27.5153 24.9316 25.4031 23.7273 25.3548 21.7692Z" fill="url(#paint1_linear)"/>
<path d="M25.5811 30.9421C25.5575 29.9856 26.0605 29.0931 26.891 28.6177L41.9275 20.0113C43.6976 18.9982 45.9069 20.2427 45.9572 22.2812C45.9819 23.281 45.4506 24.2124 44.5773 24.7001L29.4518 33.1491C27.7415 34.1045 25.6294 32.9002 25.5811 30.9421Z" fill="white"/>
<path d="M25.5811 30.9421C25.5575 29.9856 26.0605 29.0931 26.891 28.6177L41.9275 20.0113C43.6976 18.9982 45.9069 20.2427 45.9572 22.2812C45.9819 23.281 45.4506 24.2124 44.5773 24.7001L29.4518 33.1491C27.7415 34.1045 25.6294 32.9002 25.5811 30.9421Z" fill="url(#paint2_linear)"/>
<path d="M25.809 40.1843C25.7854 39.2278 26.2884 38.3353 27.1189 37.8599L42.1554 29.2535C43.9255 28.2404 46.1348 29.4849 46.1851 31.5234C46.2098 32.5232 45.6785 33.4545 44.8052 33.9423L29.6797 42.3913C27.9694 43.3467 25.8573 42.1423 25.809 40.1843Z" fill="white"/>
<path d="M25.809 40.1843C25.7854 39.2278 26.2884 38.3353 27.1189 37.8599L42.1554 29.2535C43.9255 28.2404 46.1348 29.4849 46.1851 31.5234C46.2098 32.5232 45.6785 33.4545 44.8052 33.9423L29.6797 42.3913C27.9694 43.3467 25.8573 42.1423 25.809 40.1843Z" fill="url(#paint3_linear)"/>
<path d="M26.5214 42.7216C25.6434 42.2392 25.0995 41.3098 25.1071 40.305L25.2441 22.0043C25.26 19.8812 27.5178 18.5491 29.3729 19.5685C30.2906 20.0728 30.8549 21.0483 30.8362 22.0985L30.5107 40.3961C30.4744 42.4349 28.3031 43.7007 26.5214 42.7216Z" fill="white"/>
<path d="M26.5214 42.7216C25.6434 42.2392 25.0995 41.3098 25.1071 40.305L25.2441 22.0043C25.26 19.8812 27.5178 18.5491 29.3729 19.5685C30.2906 20.0728 30.8549 21.0483 30.8362 22.0985L30.5107 40.3961C30.4744 42.4349 28.3031 43.7007 26.5214 42.7216Z" fill="url(#paint4_linear)"/>
<path d="M17.7261 17.5446C17.7025 16.5882 18.2055 15.6956 19.036 15.2203L34.0725 6.61388C35.8426 5.60076 38.052 6.84527 38.1022 8.88377C38.1269 9.88353 37.5956 10.8149 36.7223 11.3027L21.5968 19.7517C19.8865 20.707 17.7744 19.5027 17.7261 17.5446Z" fill="white"/>
<path d="M17.7261 17.5446C17.7025 16.5882 18.2055 15.6956 19.036 15.2203L34.0725 6.61388C35.8426 5.60076 38.052 6.84527 38.1022 8.88377C38.1269 9.88353 37.5956 10.8149 36.7223 11.3027L21.5968 19.7517C19.8865 20.707 17.7744 19.5027 17.7261 17.5446Z" fill="url(#paint5_linear)"/>
<path d="M18.8928 38.496C18.0148 38.0136 17.4709 37.0843 17.4785 36.0794L17.6155 17.7787C17.6314 15.6556 19.8892 14.3236 21.7443 15.3429C22.662 15.8472 23.2263 16.8228 23.2076 17.873L22.8821 36.1705C22.8458 38.2093 20.6745 39.4751 18.8928 38.496Z" fill="white"/>
<path d="M18.8928 38.496C18.0148 38.0136 17.4709 37.0843 17.4785 36.0794L17.6155 17.7787C17.6314 15.6556 19.8892 14.3236 21.7443 15.3429C22.662 15.8472 23.2263 16.8228 23.2076 17.873L22.8821 36.1705C22.8458 38.2093 20.6745 39.4751 18.8928 38.496Z" fill="url(#paint6_linear)"/>
<path d="M10.3675 13.1735C10.3439 12.2171 10.8469 11.3245 11.6774 10.8492L26.7139 2.24279C28.4839 1.22967 30.6933 2.47417 30.7436 4.51267C30.7683 5.51244 30.2369 6.44381 29.3637 6.9316L14.2382 15.3806C12.5279 16.3359 10.4158 15.1316 10.3675 13.1735Z" fill="white"/>
<path d="M10.3675 13.1735C10.3439 12.2171 10.8469 11.3245 11.6774 10.8492L26.7139 2.24279C28.4839 1.22967 30.6933 2.47417 30.7436 4.51267C30.7683 5.51244 30.2369 6.44381 29.3637 6.9316L14.2382 15.3806C12.5279 16.3359 10.4158 15.1316 10.3675 13.1735Z" fill="url(#paint7_linear)"/>
<path d="M11.5341 34.1259C10.6561 33.6435 10.1122 32.7141 10.1197 31.7093L10.2568 13.4086C10.2727 11.2855 12.5305 9.95344 14.3855 10.9728C15.3032 11.4771 15.8675 12.4526 15.8488 13.5028L15.5233 31.8004C15.487 33.8392 13.3158 35.105 11.5341 34.1259Z" fill="white"/>
<path d="M11.5341 34.1259C10.6561 33.6435 10.1122 32.7141 10.1197 31.7093L10.2568 13.4086C10.2727 11.2855 12.5305 9.95344 14.3855 10.9728C15.3032 11.4771 15.8675 12.4526 15.8488 13.5028L15.5233 31.8004C15.487 33.8392 13.3158 35.105 11.5341 34.1259Z" fill="url(#paint8_linear)"/>
<defs>
<linearGradient id="paint0_linear" x1="92.6876" y1="-9.18532" x2="92.6876" y2="54.4085" gradientUnits="userSpaceOnUse">
<stop stop-color="white"/>
<stop offset="1" stop-color="white" stop-opacity="0"/>
</linearGradient>
<linearGradient id="paint1_linear" x1="35.3312" y1="8.85401" x2="35.7571" y2="25.8206" gradientUnits="userSpaceOnUse">
<stop stop-color="white"/>
<stop offset="1" stop-color="white" stop-opacity="0"/>
</linearGradient>
<linearGradient id="paint2_linear" x1="35.5574" y1="18.0269" x2="35.9834" y2="34.9934" gradientUnits="userSpaceOnUse">
<stop stop-color="white"/>
<stop offset="1" stop-color="white" stop-opacity="0"/>
</linearGradient>
<linearGradient id="paint3_linear" x1="35.7853" y1="27.2691" x2="36.2113" y2="44.2356" gradientUnits="userSpaceOnUse">
<stop stop-color="white"/>
<stop offset="1" stop-color="white" stop-opacity="0"/>
</linearGradient>
<linearGradient id="paint4_linear" x1="20.1333" y1="26.8514" x2="35.6393" y2="35.2222" gradientUnits="userSpaceOnUse">
<stop stop-color="white"/>
<stop offset="1" stop-color="white" stop-opacity="0"/>
</linearGradient>
<linearGradient id="paint5_linear" x1="27.7024" y1="4.62941" x2="28.1284" y2="21.596" gradientUnits="userSpaceOnUse">
<stop stop-color="white"/>
<stop offset="1" stop-color="white" stop-opacity="0"/>
</linearGradient>
<linearGradient id="paint6_linear" x1="12.5047" y1="22.6258" x2="28.0107" y2="30.9966" gradientUnits="userSpaceOnUse">
<stop stop-color="white"/>
<stop offset="1" stop-color="white" stop-opacity="0"/>
</linearGradient>
<linearGradient id="paint7_linear" x1="20.3438" y1="0.258312" x2="20.7697" y2="17.2249" gradientUnits="userSpaceOnUse">
<stop stop-color="white"/>
<stop offset="1" stop-color="white" stop-opacity="0"/>
</linearGradient>
<linearGradient id="paint8_linear" x1="5.14593" y1="18.2557" x2="20.6519" y2="26.6264" gradientUnits="userSpaceOnUse">
<stop stop-color="white"/>
<stop offset="1" stop-color="white" stop-opacity="0"/>
</linearGradient>
</defs>
</svg>
