<svg width="348" height="111" viewBox="0 0 348 111" fill="none" xmlns="http://www.w3.org/2000/svg">
<g filter="url(#filter0_d)">
<rect x="15" y="11" width="318" height="80.7949" rx="10" fill="white"/>
</g>
<path d="M72.624 29.9712V30.8112H74.488C74.352 32.2592 73.728 33.3232 72.248 34.1872L72.864 34.9232C74.92 33.7232 75.528 32.0352 75.528 29.9712H72.624ZM77.648 29.0592V31.8352H76.992V29.2512H76.008V36.1152H76.992V32.6832H77.648V36.4272H78.656V29.0592H77.648ZM85.8234 29.0672H84.7594V34.3552H85.8234V29.0672ZM80.8394 31.4032C80.8394 30.7952 81.2714 30.4432 81.8154 30.4432C82.3674 30.4432 82.7834 30.7952 82.7834 31.4032C82.7834 31.9952 82.3674 32.3552 81.8154 32.3552C81.2714 32.3552 80.8394 31.9952 80.8394 31.4032ZM83.8154 31.4032C83.8154 30.3152 82.9434 29.5312 81.8154 29.5312C80.6874 29.5312 79.8074 30.3152 79.8074 31.4032C79.8074 32.4752 80.6874 33.2672 81.8154 33.2672C82.9434 33.2672 83.8154 32.4752 83.8154 31.4032ZM81.9754 35.4592V33.8352H80.9194V36.2992H86.0074V35.4592H81.9754ZM95.089 29.0592H94.025V32.7472H95.089V29.0592ZM90.097 30.9552C90.097 30.4352 90.505 30.1232 91.049 30.1232C91.593 30.1232 91.985 30.4352 91.985 30.9552C91.985 31.4832 91.593 31.7872 91.049 31.7872C90.505 31.7872 90.097 31.4832 90.097 30.9552ZM93.009 30.9552C93.009 29.9792 92.169 29.2752 91.049 29.2752C89.921 29.2752 89.073 29.9792 89.073 30.9552C89.073 31.9392 89.921 32.6432 91.049 32.6432C92.169 32.6432 93.009 31.9392 93.009 30.9552ZM91.233 35.5232V35.0592H95.089V33.0512H90.177V33.8592H94.041V34.3072H90.185V36.3392H95.273V35.5232H91.233ZM100.328 30.8352V31.6912H101.432V33.4432H102.488V29.0592H101.432V30.8352H100.328ZM100.768 32.4192C99.6484 32.0512 99.1364 31.1872 99.1044 30.3472H100.536V29.4992H96.5764V30.3472H98.0244C97.9924 31.2672 97.4564 32.2032 96.2884 32.6112L96.8244 33.4432C97.6804 33.1552 98.2644 32.5552 98.5844 31.8112C98.9044 32.4592 99.4564 32.9792 100.256 33.2432L100.768 32.4192ZM100 35.6352C99.0324 35.6352 98.5284 35.4352 98.5284 35.0192C98.5284 34.6032 99.0324 34.4032 100 34.4032C100.96 34.4032 101.464 34.6032 101.464 35.0192C101.464 35.4352 100.96 35.6352 100 35.6352ZM100 33.6032C98.4324 33.6032 97.4724 34.1232 97.4724 35.0192C97.4724 35.9152 98.4324 36.4352 100 36.4352C101.56 36.4352 102.52 35.9152 102.52 35.0192C102.52 34.1232 101.56 33.6032 100 33.6032Z" fill="#A7A1E9"/>
<path d="M78.128 49.7518C76.34 49.1758 75.596 47.7838 75.596 46.3798V45.1798H73.988V46.3678C73.988 47.8798 73.208 49.3558 71.348 49.9558L72.188 51.1918C73.448 50.7718 74.324 49.9078 74.816 48.8038C75.296 49.7998 76.112 50.5918 77.312 50.9878L78.128 49.7518ZM74.684 51.8278H73.1V55.3678H80.6V54.1078H74.684V51.8278ZM80.216 47.7118V44.5078H78.632V52.5958H80.216V49.0198H81.68V47.7118H80.216ZM88.0271 49.6798C86.6471 49.1878 86.0351 48.1438 86.0351 47.0278V46.9918H87.7031V45.7438H86.0351V44.6038H84.5351V45.7438H82.8551V46.9918H84.5351V47.0278C84.5351 48.2038 83.9471 49.3318 82.5431 49.8598L83.2631 51.0358C84.2711 50.6638 84.9311 49.9678 85.3031 49.1158C85.6871 49.8958 86.3351 50.5198 87.3191 50.8438L88.0271 49.6798ZM84.3671 53.0278H90.3911V55.5718H91.9751V51.7558H84.3671V53.0278ZM90.4751 44.5078V47.2798H89.6471V44.6998H88.1831V51.2278H89.6471V48.5518H90.4751V51.2878H91.9751V44.5078H90.4751ZM105.634 44.5078H104.038V50.0398H105.634V44.5078ZM98.1455 47.3518C98.1455 46.5718 98.7575 46.1038 99.5735 46.1038C100.39 46.1038 100.978 46.5718 100.978 47.3518C100.978 48.1438 100.39 48.5998 99.5735 48.5998C98.7575 48.5998 98.1455 48.1438 98.1455 47.3518ZM102.514 47.3518C102.514 45.8878 101.254 44.8318 99.5735 44.8318C97.8815 44.8318 96.6095 45.8878 96.6095 47.3518C96.6095 48.8278 97.8815 49.8838 99.5735 49.8838C101.254 49.8838 102.514 48.8278 102.514 47.3518ZM99.8495 54.2038V53.5078H105.634V50.4958H98.2655V51.7078H104.062V52.3798H98.2775V55.4278H105.91V54.2038H99.8495ZM113.493 47.1718V48.4558H115.149V51.0838H116.733V44.5078H115.149V47.1718H113.493ZM114.153 49.5478C112.473 48.9958 111.705 47.6998 111.657 46.4398H113.805V45.1678H107.865V46.4398H110.037C109.989 47.8198 109.185 49.2238 107.433 49.8358L108.237 51.0838C109.521 50.6518 110.397 49.7518 110.877 48.6358C111.357 49.6078 112.185 50.3878 113.385 50.7838L114.153 49.5478ZM113.001 54.3718C111.549 54.3718 110.793 54.0718 110.793 53.4478C110.793 52.8238 111.549 52.5238 113.001 52.5238C114.441 52.5238 115.197 52.8238 115.197 53.4478C115.197 54.0718 114.441 54.3718 113.001 54.3718ZM113.001 51.3238C110.649 51.3238 109.209 52.1038 109.209 53.4478C109.209 54.7918 110.649 55.5718 113.001 55.5718C115.341 55.5718 116.781 54.7918 116.781 53.4478C116.781 52.1038 115.341 51.3238 113.001 51.3238ZM126.104 44.4958V55.5838H127.688V44.4958H126.104ZM121.748 45.2758C120.08 45.2758 118.844 46.7878 118.844 49.2118C118.844 51.6478 120.08 53.1718 121.748 53.1718C123.416 53.1718 124.652 51.6478 124.652 49.2118C124.652 46.7878 123.416 45.2758 121.748 45.2758ZM121.748 46.7038C122.564 46.7038 123.128 47.5798 123.128 49.2118C123.128 50.8558 122.564 51.7318 121.748 51.7318C120.932 51.7318 120.368 50.8558 120.368 49.2118C120.368 47.5798 120.932 46.7038 121.748 46.7038ZM132.574 48.0838C132.614 47.2838 132.894 46.6678 133.414 46.2358C133.942 45.7958 134.634 45.5758 135.49 45.5758C136.074 45.5758 136.574 45.6798 136.99 45.8878C137.406 46.0878 137.718 46.3638 137.926 46.7158C138.142 47.0598 138.25 47.4518 138.25 47.8918C138.25 48.3958 138.118 48.8238 137.854 49.1758C137.598 49.5198 137.29 49.7518 136.93 49.8718V49.9198C137.394 50.0638 137.754 50.3198 138.01 50.6878C138.274 51.0558 138.406 51.5278 138.406 52.1038C138.406 52.5838 138.294 53.0118 138.07 53.3878C137.854 53.7638 137.53 54.0598 137.098 54.2758C136.674 54.4838 136.162 54.5878 135.562 54.5878C134.658 54.5878 133.922 54.3598 133.354 53.9038C132.786 53.4478 132.486 52.7758 132.454 51.8878H134.086C134.102 52.2798 134.234 52.5958 134.482 52.8358C134.738 53.0678 135.086 53.1838 135.526 53.1838C135.934 53.1838 136.246 53.0718 136.462 52.8478C136.686 52.6158 136.798 52.3198 136.798 51.9598C136.798 51.4798 136.646 51.1358 136.342 50.9278C136.038 50.7198 135.566 50.6158 134.926 50.6158H134.578V49.2358H134.926C136.062 49.2358 136.63 48.8558 136.63 48.0958C136.63 47.7518 136.526 47.4838 136.318 47.2918C136.118 47.0998 135.826 47.0038 135.442 47.0038C135.066 47.0038 134.774 47.1078 134.566 47.3158C134.366 47.5158 134.25 47.7718 134.218 48.0838H132.574ZM139.734 50.0398C139.734 48.6558 139.982 47.5718 140.478 46.7878C140.982 46.0038 141.814 45.6118 142.974 45.6118C144.134 45.6118 144.962 46.0038 145.458 46.7878C145.962 47.5718 146.214 48.6558 146.214 50.0398C146.214 51.4318 145.962 52.5238 145.458 53.3158C144.962 54.1078 144.134 54.5038 142.974 54.5038C141.814 54.5038 140.982 54.1078 140.478 53.3158C139.982 52.5238 139.734 51.4318 139.734 50.0398ZM144.558 50.0398C144.558 49.4478 144.518 48.9518 144.438 48.5518C144.366 48.1438 144.214 47.8118 143.982 47.5558C143.758 47.2998 143.422 47.1718 142.974 47.1718C142.526 47.1718 142.186 47.2998 141.954 47.5558C141.73 47.8118 141.578 48.1438 141.498 48.5518C141.426 48.9518 141.39 49.4478 141.39 50.0398C141.39 50.6478 141.426 51.1598 141.498 51.5758C141.57 51.9838 141.722 52.3158 141.954 52.5718C142.186 52.8198 142.526 52.9438 142.974 52.9438C143.422 52.9438 143.762 52.8198 143.994 52.5718C144.226 52.3158 144.378 51.9838 144.45 51.5758C144.522 51.1598 144.558 50.6478 144.558 50.0398ZM154.523 48.1678H150.215V47.1718H154.523V48.1678ZM156.095 44.8558H154.523V45.9838H150.215V44.8558H148.643V49.4038H156.095V44.8558ZM150.107 52.3318H148.523V55.3678H156.275V54.1078H150.107V52.3318ZM147.359 50.1718V51.4198H151.715V53.1598H153.299V51.4198H157.379V50.1718H147.359ZM167.522 48.4438C166.034 48.7318 164.618 48.8398 163.298 48.8638V45.0238H161.714V50.1838H162.65C164.21 50.1838 165.902 50.0758 167.702 49.7158L167.522 48.4438ZM164.33 52.4758H168.422V54.1918H164.33V52.4758ZM162.77 55.4278H169.97V51.2398H162.77V55.4278ZM171.434 46.8358H169.97V44.5078H168.386V50.7238H169.97V48.1318H171.434V46.8358ZM175.393 46.4158C176.221 46.4158 176.845 46.9198 176.845 47.7718C176.845 48.6238 176.221 49.1158 175.393 49.1158C174.553 49.1158 173.941 48.6238 173.941 47.7718C173.941 46.9198 174.553 46.4158 175.393 46.4158ZM175.393 50.4478C177.085 50.4478 178.381 49.3318 178.381 47.7718C178.381 46.2118 177.085 45.0958 175.393 45.0958C173.689 45.0958 172.393 46.2118 172.393 47.7718C172.393 49.3318 173.689 50.4478 175.393 50.4478ZM180.229 51.1438H178.657V51.5398C178.657 52.3678 178.297 53.3398 177.397 53.9998C176.533 53.3758 176.185 52.4398 176.185 51.5398V51.1438H174.649V51.5398C174.649 52.6318 174.049 53.7598 172.609 54.2758L173.389 55.4158C174.385 55.0558 175.033 54.3958 175.417 53.5678C175.777 54.4318 176.401 55.1518 177.421 55.5238C178.417 55.1278 179.065 54.3838 179.425 53.5318C179.797 54.3838 180.457 55.0558 181.489 55.4158L182.269 54.2758C180.817 53.7958 180.229 52.7158 180.229 51.5398V51.1438ZM181.009 46.8718V44.5078H179.425V50.6758H181.009V48.1558H182.473V46.8718H181.009ZM186.372 51.7318C185.568 51.7318 185.028 50.8558 185.028 49.2118C185.028 47.5798 185.568 46.7038 186.372 46.7038C187.188 46.7038 187.728 47.5798 187.728 49.2118C187.728 50.8558 187.188 51.7318 186.372 51.7318ZM191.04 44.4958V48.4798H189.192C188.976 46.4878 187.86 45.2758 186.372 45.2758C184.728 45.2758 183.516 46.7878 183.516 49.2118C183.516 51.6478 184.728 53.1718 186.372 53.1718C187.908 53.1718 189.036 51.8758 189.204 49.7638H191.04V55.5838H192.624V44.4958H191.04ZM198.167 50.8798C198.551 50.9518 198.947 50.9878 199.379 50.9878C199.811 50.9878 200.219 50.9518 200.603 50.8798V52.9918H198.167V50.8798ZM199.379 46.2958C200.915 46.2958 201.947 46.9198 201.947 48.0238C201.947 49.1158 200.915 49.7518 199.379 49.7518C197.843 49.7518 196.823 49.1158 196.823 48.0238C196.823 46.9198 197.843 46.2958 199.379 46.2958ZM202.175 52.9918V50.2918C203.003 49.7758 203.507 48.9838 203.507 48.0238C203.507 46.2118 201.767 45.0478 199.379 45.0478C197.003 45.0478 195.263 46.2118 195.263 48.0238C195.251 48.9838 195.755 49.7758 196.595 50.2918V52.9918H194.387V54.2758H204.395V52.9918H202.175ZM206.482 54.6118C206.178 54.6118 205.926 54.5198 205.726 54.3358C205.534 54.1438 205.438 53.9078 205.438 53.6278C205.438 53.3478 205.534 53.1158 205.726 52.9318C205.926 52.7398 206.178 52.6438 206.482 52.6438C206.778 52.6438 207.022 52.7398 207.214 52.9318C207.406 53.1158 207.502 53.3478 207.502 53.6278C207.502 53.9078 207.406 54.1438 207.214 54.3358C207.022 54.5198 206.778 54.6118 206.482 54.6118ZM72.524 67.4878C74.588 67.2598 75.944 66.4078 76.508 65.2798C77.096 66.4078 78.44 67.2598 80.492 67.4878L81.068 66.2518C78.908 66.0118 77.816 65.1238 77.636 64.2358H80.612V62.9758H72.428V64.2358H75.392C75.2 65.1118 74.096 66.0118 71.96 66.2518L72.524 67.4878ZM74.252 70.1878H72.668V73.3678H80.408V72.1078H74.252V70.1878ZM71.504 68.0158V69.2638H75.86V71.1358H77.444V69.2638H81.524V68.0158H71.504ZM90.1271 62.4958V73.5838H91.7111V62.4958H90.1271ZM83.0951 63.3838V71.0038H88.5431V63.3838H86.9711V66.0598H84.6671V63.3838H83.0951ZM84.6671 67.2958H86.9711V69.7438H84.6671V67.2958ZM96.7861 70.0078C96.0421 70.0078 95.4901 69.5038 95.4901 68.6638C95.4901 67.8238 96.0421 67.3078 96.7861 67.3078C97.5301 67.3078 98.0701 67.8238 98.0701 68.6518C98.0701 69.5038 97.5301 70.0078 96.7861 70.0078ZM96.7861 66.0238C95.1781 66.0238 93.9781 67.1158 93.9781 68.6518C93.9781 70.2118 95.1781 71.3038 96.7861 71.3038C98.3821 71.3038 99.5701 70.2118 99.5701 68.6518C99.5701 67.1158 98.3821 66.0238 96.7861 66.0238ZM97.5661 62.6998H95.9821V64.1398H93.5341V65.3998H99.9661V64.1398H97.5661V62.6998ZM103.854 66.8278H102.27V62.5078H100.686V73.5598H102.27V68.1358H103.854V66.8278ZM108.161 63.4678H106.637V65.3278C106.637 67.2118 106.049 69.1918 104.429 70.1758L105.377 71.3638C106.373 70.7638 107.021 69.7078 107.405 68.4838C107.753 69.5998 108.341 70.5358 109.277 71.1118L110.141 69.8878C108.641 68.8918 108.161 67.0558 108.161 65.2678V63.4678ZM110.369 66.2398H108.977V67.5238H110.369V73.0678H111.845V62.6878H110.369V66.2398ZM112.613 62.5078V73.5598H114.113V62.5078H112.613ZM119.452 68.8798C119.836 68.9518 120.232 68.9878 120.664 68.9878C121.096 68.9878 121.504 68.9518 121.888 68.8798V70.9918H119.452V68.8798ZM120.664 64.2958C122.2 64.2958 123.232 64.9198 123.232 66.0238C123.232 67.1158 122.2 67.7518 120.664 67.7518C119.128 67.7518 118.108 67.1158 118.108 66.0238C118.108 64.9198 119.128 64.2958 120.664 64.2958ZM123.46 70.9918V68.2918C124.288 67.7758 124.792 66.9838 124.792 66.0238C124.792 64.2118 123.052 63.0478 120.664 63.0478C118.288 63.0478 116.548 64.2118 116.548 66.0238C116.536 66.9838 117.04 67.7758 117.88 68.2918V70.9918H115.672V72.2758H125.68V70.9918H123.46ZM129.195 64.0078L129.003 69.8038H127.587L127.383 64.0078H129.195ZM128.331 72.6118C128.027 72.6118 127.775 72.5198 127.575 72.3358C127.383 72.1438 127.287 71.9078 127.287 71.6278C127.287 71.3478 127.383 71.1158 127.575 70.9318C127.775 70.7398 128.027 70.6438 128.331 70.6438C128.627 70.6438 128.871 70.7398 129.063 70.9318C129.255 71.1158 129.351 71.3478 129.351 71.6278C129.351 71.9078 129.255 72.1438 129.063 72.3358C128.871 72.5198 128.627 72.6118 128.331 72.6118Z" fill="#A7A1E9"/>
<path d="M294.248 28.768V28.264H295.608V34H295.04V28.768H294.248ZM296.744 33.56C297.725 32.824 298.483 32.1653 299.016 31.584C299.555 30.9973 299.824 30.424 299.824 29.864C299.824 29.496 299.731 29.2026 299.544 28.984C299.363 28.76 299.064 28.648 298.648 28.648C298.243 28.648 297.928 28.776 297.704 29.032C297.485 29.2826 297.363 29.6186 297.336 30.04H296.792C296.824 29.448 297.005 28.9893 297.336 28.664C297.672 28.3333 298.109 28.168 298.648 28.168C299.165 28.168 299.584 28.3146 299.904 28.608C300.224 28.896 300.384 29.3066 300.384 29.84C300.384 30.4853 300.115 31.112 299.576 31.72C299.043 32.3226 298.384 32.912 297.6 33.488H300.56V33.96H296.744V33.56ZM306.33 29.992H302.842V29.064H306.33V29.992ZM306.978 27.64H306.33V28.56H302.842V27.64H302.194V30.512H306.978V27.64ZM302.802 32.48H302.154V34.432H307.114V33.896H302.802V32.48ZM301.322 31.208V31.736H304.306V33.128H304.962V31.736H307.842V31.208H301.322ZM314.701 29.4V29.936H316.141V32.68H316.805V27.424H316.141V29.4H314.701ZM315.125 31.088C314.085 30.72 313.381 29.824 313.381 28.888V28.536H314.957V28H311.125V28.536H312.725V28.896C312.725 29.912 311.981 30.864 310.917 31.248L311.261 31.76C312.101 31.456 312.757 30.792 313.069 29.976C313.381 30.712 313.997 31.312 314.797 31.6L315.125 31.088ZM312.877 33.896V32.216H312.213V34.432H317.005V33.896H312.877Z" fill="#919191"/>
<circle cx="43" cy="51.1335" r="16" fill="#968DFF"/>
<path fill-rule="evenodd" clip-rule="evenodd" d="M43.4028 57.1222C41.0955 57.1222 39.125 56.7632 39.125 55.3252C39.125 53.8872 41.083 52.5597 43.4028 52.5597C45.7102 52.5597 47.6807 53.8743 47.6807 55.3123C47.6807 56.7497 45.7227 57.1222 43.4028 57.1222Z" stroke="white" stroke-width="1.2" stroke-linecap="round" stroke-linejoin="round"/>
<path fill-rule="evenodd" clip-rule="evenodd" d="M43.3983 50.5671C44.9125 50.5671 46.1398 49.3398 46.1398 47.8256C46.1398 46.3114 44.9125 45.0835 43.3983 45.0835C41.8841 45.0835 40.6563 46.3114 40.6563 47.8256C40.6512 49.3347 41.8699 50.5619 43.379 50.5671C43.3858 50.5671 43.3921 50.5671 43.3983 50.5671Z" stroke="white" stroke-width="1.2" stroke-linecap="round" stroke-linejoin="round"/>
<defs>
<filter id="filter0_d" x="0" y="0" width="348" height="110.795" filterUnits="userSpaceOnUse" color-interpolation-filters="sRGB">
<feFlood flood-opacity="0" result="BackgroundImageFix"/>
<feColorMatrix in="SourceAlpha" type="matrix" values="0 0 0 0 0 0 0 0 0 0 0 0 0 0 0 0 0 0 127 0" result="hardAlpha"/>
<feOffset dy="4"/>
<feGaussianBlur stdDeviation="7.5"/>
<feColorMatrix type="matrix" values="0 0 0 0 0.920833 0 0 0 0 0.920833 0 0 0 0 0.920833 0 0 0 1 0"/>
<feBlend mode="normal" in2="BackgroundImageFix" result="effect1_dropShadow"/>
<feBlend mode="normal" in="SourceGraphic" in2="effect1_dropShadow" result="shape"/>
</filter>
</defs>
</svg>
