<svg width="358" height="121" viewBox="0 0 358 121" fill="none" xmlns="http://www.w3.org/2000/svg">
<g filter="url(#filter0_d)">
<rect x="20" y="16" width="318" height="80.7949" rx="10" fill="white"/>
</g>
<path d="M81.856 37.1392C80.664 36.7952 80.144 35.9312 80.144 35.0432V34.3312H79.072V35.0432C79.072 35.9472 78.544 36.8832 77.312 37.2672L77.824 38.0992C78.688 37.8272 79.288 37.2672 79.624 36.5632C79.952 37.2112 80.52 37.7152 81.352 37.9632L81.856 37.1392ZM79.6 39.3872H82.432V40.5152H79.6V39.3872ZM78.56 41.3392H83.464V38.5632H78.56V41.3392ZM82.4 34.0592V38.2192H83.464V34.0592H82.4ZM89.5434 36.7632H86.5114V36.0032H89.5434V36.7632ZM90.5834 34.3392H89.5434V35.1792H86.5114V34.3392H85.4634V37.6032H90.5834V34.3392ZM91.3754 38.2992H84.7034V39.1392H87.4874V41.4352H88.5434V39.1392H91.3754V38.2992ZM96.8788 35.4192H92.8947V37.3872H98.0628V36.5872H93.9348V36.1632H97.9188V34.2032H92.8788V35.0032H96.8788V35.4192ZM93.9428 39.8832H96.9268V40.5152H93.9428V39.8832ZM92.9028 41.3392H97.9588V39.0512H92.9028V41.3392ZM92.0628 37.7792V38.6112H98.7348V37.7792H92.0628Z" fill="#AFADFF"/>
<path d="M80.788 51.8718H83.068V50.5638H76.876V51.8718H79.18V52.4838C79.18 54.3678 78.28 56.3958 76.432 57.2238L77.332 58.4838C78.628 57.8958 79.516 56.6838 80.008 55.2438C80.5 56.5758 81.376 57.6558 82.66 58.2078L83.524 56.9598C81.676 56.1918 80.788 54.2838 80.788 52.4838V51.8718ZM84.088 49.5078V60.5598H85.672V49.5078H84.088ZM93.9751 50.4078H91.6351V49.4598H90.0511V50.4078H87.6991V51.5358H93.9751V50.4078ZM89.6431 53.5398C89.6431 53.1078 90.0991 52.8798 90.8431 52.8798C91.5871 52.8798 92.0311 53.1078 92.0311 53.5398C92.0311 53.9598 91.5871 54.1878 90.8431 54.1878C90.0991 54.1878 89.6431 53.9598 89.6431 53.5398ZM94.2511 55.4958C93.4111 55.6158 92.5351 55.6878 91.6351 55.7478V55.1838C92.7991 55.0038 93.5311 54.4038 93.5311 53.5398C93.5311 52.4718 92.4631 51.8238 90.8431 51.8238C89.2111 51.8238 88.1431 52.4718 88.1431 53.5398C88.1431 54.4038 88.8751 55.0038 90.0511 55.1838V55.8198C89.1031 55.8558 88.2031 55.8558 87.4231 55.8558L87.5911 57.0678C89.4751 57.0558 92.0791 57.0078 94.3711 56.5758L94.2511 55.4958ZM90.5431 57.5958H88.9591V60.3678H96.6871V59.1078H90.5431V57.5958ZM96.3151 53.1198V49.4958H94.7311V58.1358H96.3151V54.4158H97.7071V53.1198H96.3151ZM105.278 53.4078C103.826 53.7318 102.434 53.8398 100.79 53.8638V50.1438H99.2181V55.1718H100.178C102.158 55.1718 103.778 55.0518 105.47 54.6918L105.278 53.4078ZM101.978 57.4038H106.214V59.1918H101.978V57.4038ZM100.418 60.4278H107.762V56.1558H100.418V60.4278ZM106.178 49.4958V55.6878H107.762V49.4958H106.178ZM117.205 49.4958V60.5838H118.789V49.4958H117.205ZM112.849 50.2758C111.181 50.2758 109.945 51.7878 109.945 54.2118C109.945 56.6478 111.181 58.1718 112.849 58.1718C114.517 58.1718 115.753 56.6478 115.753 54.2118C115.753 51.7878 114.517 50.2758 112.849 50.2758ZM112.849 51.7038C113.665 51.7038 114.229 52.5798 114.229 54.2118C114.229 55.8558 113.665 56.7318 112.849 56.7318C112.033 56.7318 111.469 55.8558 111.469 54.2118C111.469 52.5798 112.033 51.7038 112.849 51.7038ZM130.3 54.1278C128.512 53.6118 127.732 52.3158 127.732 50.9838V49.9158H126.124V50.9838C126.124 52.3398 125.332 53.7438 123.484 54.3198L124.252 55.5678C125.548 55.1598 126.448 54.3198 126.952 53.2638C127.444 54.2358 128.296 54.9918 129.544 55.3638L130.3 54.1278ZM126.916 57.4998H131.164V59.1918H126.916V57.4998ZM125.356 60.4278H132.712V56.2638H125.356V60.4278ZM131.116 49.5078V55.7478H132.712V49.5078H131.116ZM141.831 53.5638H137.283V52.4238H141.831V53.5638ZM143.391 49.9278H141.831V51.1878H137.283V49.9278H135.711V54.8238H143.391V49.9278ZM144.579 55.8678H134.571V57.1278H138.747V60.5718H140.331V57.1278H144.579V55.8678ZM152.834 51.5478H146.858V54.4998H154.61V53.2998H148.418V52.6638H154.394V49.7238H146.834V50.9238H152.834V51.5478ZM148.43 58.2438H152.906V59.1918H148.43V58.2438ZM146.87 60.4278H154.454V56.9958H146.87V60.4278ZM145.61 55.0878V56.3358H155.618V55.0878H145.61ZM161.641 50.8278C163.249 50.8278 164.005 51.0558 164.005 51.5478C164.005 52.0638 163.249 52.2798 161.641 52.2798C160.045 52.2798 159.289 52.0638 159.289 51.5478C159.289 51.0558 160.045 50.8278 161.641 50.8278ZM161.641 53.4318C164.173 53.4318 165.649 52.7718 165.649 51.5478C165.649 50.3358 164.173 49.6638 161.641 49.6638C159.121 49.6638 157.645 50.3358 157.645 51.5478C157.645 52.7718 159.121 53.4318 161.641 53.4318ZM159.373 58.6638H165.421V55.8198H157.789V56.9838H163.861V57.5718H157.801V60.4758H165.709V59.2878H159.373V58.6638ZM156.649 53.9598V55.1958H166.633V53.9598H156.649ZM173.175 53.1558H177.903V54.7038H173.175V53.1558ZM176.331 57.9918V55.9638H179.463V50.1918H177.903V51.9078H173.175V50.1918H171.603V55.9638H174.747V57.9918H170.547V59.2758H180.555V57.9918H176.331ZM188.534 53.3118H189.506V55.7838H191.006V49.5078H189.506V52.0518H188.534V49.7118H187.058V55.6878H188.534V53.3118ZM186.41 53.5998C185.438 53.7798 184.55 53.8638 183.602 53.8878V50.2878H182.03V55.1958H182.774C184.13 55.1958 185.27 55.1358 186.566 54.8838L186.41 53.5998ZM189.806 56.1438H188.246V56.6238C188.246 57.4398 187.886 58.3998 186.974 59.0598C186.11 58.4478 185.762 57.5118 185.762 56.6238V56.1438H184.226V56.6238C184.226 57.7278 183.614 58.8318 182.174 59.3238L182.954 60.4758C183.95 60.1158 184.61 59.4558 184.994 58.6398C185.354 59.4918 185.978 60.1998 186.998 60.5718C187.994 60.1878 188.63 59.4558 189.002 58.6038C189.374 59.4558 190.046 60.1158 191.09 60.4758L191.858 59.3238C190.394 58.8798 189.806 57.7758 189.806 56.6238V56.1438ZM195.649 56.7318C194.845 56.7318 194.305 55.8558 194.305 54.2118C194.305 52.5798 194.845 51.7038 195.649 51.7038C196.465 51.7038 197.005 52.5798 197.005 54.2118C197.005 55.8558 196.465 56.7318 195.649 56.7318ZM200.317 49.4958V53.4798H198.469C198.253 51.4878 197.137 50.2758 195.649 50.2758C194.005 50.2758 192.793 51.7878 192.793 54.2118C192.793 56.6478 194.005 58.1718 195.649 58.1718C197.185 58.1718 198.313 56.8758 198.481 54.7638H200.317V60.5838H201.901V49.4958H200.317ZM207.444 55.8798C207.828 55.9518 208.224 55.9878 208.656 55.9878C209.088 55.9878 209.496 55.9518 209.88 55.8798V57.9918H207.444V55.8798ZM208.656 51.2958C210.192 51.2958 211.224 51.9198 211.224 53.0238C211.224 54.1158 210.192 54.7518 208.656 54.7518C207.12 54.7518 206.1 54.1158 206.1 53.0238C206.1 51.9198 207.12 51.2958 208.656 51.2958ZM211.452 57.9918V55.2918C212.28 54.7758 212.784 53.9838 212.784 53.0238C212.784 51.2118 211.044 50.0478 208.656 50.0478C206.28 50.0478 204.54 51.2118 204.54 53.0238C204.528 53.9838 205.032 54.7758 205.872 55.2918V57.9918H203.664V59.2758H213.672V57.9918H211.452ZM215.76 59.6118C215.456 59.6118 215.204 59.5198 215.004 59.3358C214.812 59.1438 214.716 58.9078 214.716 58.6278C214.716 58.3478 214.812 58.1158 215.004 57.9318C215.204 57.7398 215.456 57.6438 215.76 57.6438C216.056 57.6438 216.3 57.7398 216.492 57.9318C216.684 58.1158 216.78 58.3478 216.78 58.6278C216.78 58.9078 216.684 59.1438 216.492 59.3358C216.3 59.5198 216.056 59.6118 215.76 59.6118ZM82.936 68.3238H80.596V67.4118H79.012V68.3238H76.66V69.4518H82.936V68.3238ZM78.604 71.3598C78.604 70.9518 79.06 70.7478 79.804 70.7478C80.548 70.7478 80.992 70.9518 80.992 71.3598C80.992 71.7678 80.548 71.9838 79.804 71.9838C79.06 71.9838 78.604 71.7678 78.604 71.3598ZM83.212 73.3158C82.372 73.4118 81.496 73.4838 80.596 73.5198V72.9558C81.772 72.7758 82.492 72.1998 82.492 71.3598C82.492 70.3518 81.436 69.7278 79.804 69.7278C78.172 69.7278 77.104 70.3518 77.104 71.3598C77.104 72.1998 77.836 72.7758 79.012 72.9558V73.5798C78.076 73.6038 77.176 73.6038 76.384 73.6038L76.552 74.8158C78.496 74.8158 81.016 74.7918 83.332 74.3838L83.212 73.3158ZM77.788 76.6998H83.692V78.5718H85.276V75.4758H77.788V76.6998ZM86.668 70.6758H85.276V67.5078H83.692V75.0438H85.276V71.9718H86.668V70.6758ZM96.7351 67.5198H95.1391V75.4518H96.7351V67.5198ZM89.2591 71.0238C89.2591 70.1118 89.9071 69.5838 90.7231 69.5838C91.5511 69.5838 92.1751 70.1118 92.1751 71.0238C92.1751 71.9118 91.5511 72.4518 90.7231 72.4518C89.9071 72.4518 89.2591 71.9118 89.2591 71.0238ZM93.7231 71.0238C93.7231 69.3918 92.4151 68.2158 90.7231 68.2158C89.0311 68.2158 87.7111 69.3918 87.7111 71.0238C87.7111 72.6318 89.0311 73.8198 90.7231 73.8198C92.4151 73.8198 93.7231 72.6318 93.7231 71.0238ZM90.9631 77.1078V74.6718H89.3791V78.3678H97.0111V77.1078H90.9631ZM101.246 74.8638C100.646 74.8638 100.214 74.3838 100.214 73.5558C100.214 72.7278 100.646 72.2358 101.246 72.2358C101.846 72.2358 102.278 72.7278 102.278 73.5558C102.278 74.3838 101.846 74.8638 101.246 74.8638ZM101.246 70.9158C99.8301 70.9158 98.8221 72.0078 98.8221 73.5558C98.8221 75.0918 99.8301 76.1838 101.246 76.1838C102.662 76.1838 103.67 75.0918 103.67 73.5558C103.67 72.0078 102.662 70.9158 101.246 70.9158ZM102.026 67.8078H100.466V69.1758H98.5821V70.4358H103.862V69.1758H102.026V67.8078ZM106.574 67.4958V72.0078H105.734V67.7118H104.258V78.0918H105.734V73.2798H106.574V78.5478H108.074V67.4958H106.574ZM112.357 76.6998H118.405V73.8918H110.773V75.0558H116.845V75.6078H110.785V78.4758H118.693V77.2998H112.357V76.6998ZM112.477 69.5598H116.785V70.2078H112.477V69.5598ZM115.393 72.0798V71.3718H118.357V67.6758H116.785V68.4078H112.477V67.6758H110.905V71.3718H113.809V72.0798H109.633V73.3158H119.629V72.0798H115.393ZM120.936 68.6358V69.9078H122.424C122.34 72.1278 121.908 73.7238 120.444 75.3438L121.68 76.2438C123.648 74.0598 123.924 71.6838 123.924 68.6358H120.936ZM124.308 68.6358V69.9078H125.484C125.4 72.3678 125.004 74.2158 123.54 76.0638L124.788 76.9398C126.72 74.5518 126.972 71.8278 126.972 68.6358H124.308ZM130.884 71.8278H129.456V67.4958H127.86V78.5478H129.456V73.1358H130.884V71.8278ZM135.491 73.8798C135.875 73.9518 136.271 73.9878 136.703 73.9878C137.135 73.9878 137.543 73.9518 137.927 73.8798V75.9918H135.491V73.8798ZM136.703 69.2958C138.239 69.2958 139.271 69.9198 139.271 71.0238C139.271 72.1158 138.239 72.7518 136.703 72.7518C135.167 72.7518 134.147 72.1158 134.147 71.0238C134.147 69.9198 135.167 69.2958 136.703 69.2958ZM139.499 75.9918V73.2918C140.327 72.7758 140.831 71.9838 140.831 71.0238C140.831 69.2118 139.091 68.0478 136.703 68.0478C134.327 68.0478 132.587 69.2118 132.587 71.0238C132.575 71.9838 133.079 72.7758 133.919 73.2918V75.9918H131.711V77.2758H141.719V75.9918H139.499ZM145.402 68.8638C146.234 68.8638 146.902 69.0918 147.406 69.5478C147.918 69.9958 148.174 70.6158 148.174 71.4078C148.174 72.1918 147.922 72.7918 147.418 73.2078C146.914 73.6158 146.246 73.8198 145.414 73.8198L145.366 74.7438H143.89L143.83 72.7038H144.37C145.066 72.7038 145.602 72.6118 145.978 72.4278C146.354 72.2438 146.542 71.9078 146.542 71.4198C146.542 71.0678 146.438 70.7878 146.23 70.5798C146.03 70.3718 145.754 70.2678 145.402 70.2678C145.034 70.2678 144.746 70.3678 144.538 70.5678C144.338 70.7678 144.238 71.0438 144.238 71.3958H142.654C142.646 70.9078 142.75 70.4718 142.966 70.0878C143.182 69.7038 143.498 69.4038 143.914 69.1878C144.338 68.9718 144.834 68.8638 145.402 68.8638ZM144.622 77.6118C144.318 77.6118 144.066 77.5198 143.866 77.3358C143.674 77.1438 143.578 76.9078 143.578 76.6278C143.578 76.3478 143.674 76.1158 143.866 75.9318C144.066 75.7398 144.318 75.6438 144.622 75.6438C144.918 75.6438 145.162 75.7398 145.354 75.9318C145.546 76.1158 145.642 76.3478 145.642 76.6278C145.642 76.9078 145.546 77.1438 145.354 77.3358C145.162 77.5198 144.918 77.6118 144.622 77.6118Z" fill="#A7A1E9"/>
<path d="M299.408 34.0036C300.389 33.2676 301.147 32.6089 301.68 32.0276C302.219 31.4409 302.488 30.8676 302.488 30.3076C302.488 29.9396 302.395 29.6462 302.208 29.4276C302.027 29.2036 301.728 29.0916 301.312 29.0916C300.907 29.0916 300.592 29.2196 300.368 29.4756C300.149 29.7262 300.027 30.0622 300 30.4836H299.456C299.488 29.8916 299.669 29.4329 300 29.1076C300.336 28.7769 300.773 28.6116 301.312 28.6116C301.829 28.6116 302.248 28.7582 302.568 29.0516C302.888 29.3396 303.048 29.7502 303.048 30.2836C303.048 30.9289 302.779 31.5556 302.24 32.1636C301.707 32.7662 301.048 33.3556 300.264 33.9316H303.224V34.4036H299.408V34.0036ZM306.546 28.4836H305.898V29.7716C305.898 31.1316 305.026 32.5076 303.97 33.0116L304.37 33.5476C305.21 33.1156 305.898 32.2196 306.226 31.1396C306.57 32.1636 307.258 33.0116 308.074 33.4116L308.466 32.8836C307.402 32.4036 306.546 31.0836 306.546 29.7716V28.4836ZM309.218 27.8596V35.0516H309.874V27.8596H309.218ZM311.666 28.4196V28.9556H314.306C314.17 30.2196 313.066 31.2356 311.378 31.7636L311.642 32.2836C313.706 31.6356 315.01 30.2756 315.01 28.4196H311.666ZM313.114 32.5716H312.458V34.8756H317.242V34.3396H313.114V32.5716ZM316.93 30.0436V27.8676H316.274V33.1076H316.93V30.5876H317.986V30.0436H316.93ZM324.724 29.8436V30.3796H326.164V33.1236H326.828V27.8676H326.164V29.8436H324.724ZM325.148 31.5316C324.108 31.1636 323.404 30.2676 323.404 29.3316V28.9796H324.98V28.4436H321.148V28.9796H322.748V29.3396C322.748 30.3556 322.004 31.3076 320.94 31.6916L321.284 32.2036C322.124 31.8996 322.78 31.2356 323.092 30.4196C323.404 31.1556 324.02 31.7556 324.82 32.0436L325.148 31.5316ZM322.9 34.3396V32.6596H322.236V34.8756H327.028V34.3396H322.9Z" fill="#919191"/>
<ellipse cx="48" cy="56.9221" rx="16" ry="16.7886" fill="#CFCBFF"/>
<defs>
<filter id="filter0_d" x="0" y="0" width="358" height="120.795" filterUnits="userSpaceOnUse" color-interpolation-filters="sRGB">
<feFlood flood-opacity="0" result="BackgroundImageFix"/>
<feColorMatrix in="SourceAlpha" type="matrix" values="0 0 0 0 0 0 0 0 0 0 0 0 0 0 0 0 0 0 127 0" result="hardAlpha"/>
<feOffset dy="4"/>
<feGaussianBlur stdDeviation="10"/>
<feColorMatrix type="matrix" values="0 0 0 0 0 0 0 0 0 0 0 0 0 0 0 0 0 0 0.1 0"/>
<feBlend mode="normal" in2="BackgroundImageFix" result="effect1_dropShadow"/>
<feBlend mode="normal" in="SourceGraphic" in2="effect1_dropShadow" result="shape"/>
</filter>
</defs>
</svg>
