<svg width="72" height="26" viewBox="0 0 72 26" fill="none" xmlns="http://www.w3.org/2000/svg">
<path d="M36.0768 7.0595V11.2005H41.6183V13.8271H36.0768V18.2047H42.3258V20.9023H32.7755V4.36194H42.3258V7.0595H36.0768ZM48.6979 18.11H56.1023V20.9023H44.8778V18.3467L52.235 7.17782H44.8778V4.3856H56.1023V6.94119L48.6979 18.11ZM71.9999 4.3856L66.4348 15.1522V20.9023H63.1335V15.1522L57.5449 4.3856H61.2706L64.8078 11.934L68.3213 4.3856H71.9999Z" fill="white"/>
<path d="M36.0768 7.0595V11.2005H41.6183V13.8271H36.0768V18.2047H42.3258V20.9023H32.7755V4.36194H42.3258V7.0595H36.0768ZM48.6979 18.11H56.1023V20.9023H44.8778V18.3467L52.235 7.17782H44.8778V4.3856H56.1023V6.94119L48.6979 18.11ZM71.9999 4.3856L66.4348 15.1522V20.9023H63.1335V15.1522L57.5449 4.3856H61.2706L64.8078 11.934L68.3213 4.3856H71.9999Z" fill="url(#paint0_linear)"/>
<path d="M14.1515 12.1501C14.1384 11.6163 14.4191 11.1182 14.8826 10.8528L23.2751 6.04927C24.2631 5.4838 25.4962 6.17841 25.5243 7.31618C25.538 7.87419 25.2415 8.39402 24.7541 8.66628L16.3119 13.382C15.3574 13.9152 14.1785 13.243 14.1515 12.1501Z" fill="white"/>
<path d="M14.1515 12.1501C14.1384 11.6163 14.4191 11.1182 14.8826 10.8528L23.2751 6.04927C24.2631 5.4838 25.4962 6.17841 25.5243 7.31618C25.538 7.87419 25.2415 8.39402 24.7541 8.66628L16.3119 13.382C15.3574 13.9152 14.1785 13.243 14.1515 12.1501Z" fill="url(#paint1_linear)"/>
<path d="M14.2777 17.2699C14.2646 16.7361 14.5453 16.2379 15.0089 15.9726L23.4013 11.169C24.3893 10.6036 25.6224 11.2982 25.6505 12.4359C25.6642 12.9939 25.3677 13.5138 24.8803 13.786L16.4382 18.5017C15.4836 19.035 14.3047 18.3628 14.2777 17.2699Z" fill="white"/>
<path d="M14.2777 17.2699C14.2646 16.7361 14.5453 16.2379 15.0089 15.9726L23.4013 11.169C24.3893 10.6036 25.6224 11.2982 25.6505 12.4359C25.6642 12.9939 25.3677 13.5138 24.8803 13.786L16.4382 18.5017C15.4836 19.035 14.3047 18.3628 14.2777 17.2699Z" fill="url(#paint2_linear)"/>
<path d="M14.4049 22.4287C14.3918 21.8949 14.6725 21.3967 15.1361 21.1314L23.5285 16.3278C24.5165 15.7624 25.7496 16.457 25.7777 17.5947C25.7914 18.1528 25.4949 18.6726 25.0075 18.9448L16.5654 23.6605C15.6108 24.1938 14.4319 23.5216 14.4049 22.4287Z" fill="white"/>
<path d="M14.4049 22.4287C14.3918 21.8949 14.6725 21.3967 15.1361 21.1314L23.5285 16.3278C24.5165 15.7624 25.7496 16.457 25.7777 17.5947C25.7914 18.1528 25.4949 18.6726 25.0075 18.9448L16.5654 23.6605C15.6108 24.1938 14.4319 23.5216 14.4049 22.4287Z" fill="url(#paint3_linear)"/>
<path d="M14.8026 23.8445C14.3126 23.5753 14.009 23.0566 14.0132 22.4957L14.0897 12.2813C14.0986 11.0964 15.3587 10.3529 16.3941 10.9218C16.9063 11.2033 17.2213 11.7478 17.2108 12.334L17.0292 22.5466C17.0089 23.6845 15.797 24.391 14.8026 23.8445Z" fill="white"/>
<path d="M14.8026 23.8445C14.3126 23.5753 14.009 23.0566 14.0132 22.4957L14.0897 12.2813C14.0986 11.0964 15.3587 10.3529 16.3941 10.9218C16.9063 11.2033 17.2213 11.7478 17.2108 12.334L17.0292 22.5466C17.0089 23.6845 15.797 24.391 14.8026 23.8445Z" fill="url(#paint4_linear)"/>
<path d="M9.89372 9.79211C9.88055 9.25828 10.1613 8.76012 10.6248 8.49481L19.0173 3.69124C20.0052 3.12577 21.2384 3.82038 21.2664 4.95815C21.2802 5.51616 20.9837 6.03599 20.4963 6.30825L12.0541 11.024C11.0995 11.5572 9.92067 10.885 9.89372 9.79211Z" fill="white"/>
<path d="M9.89372 9.79211C9.88055 9.25828 10.1613 8.76012 10.6248 8.49481L19.0173 3.69124C20.0052 3.12577 21.2384 3.82038 21.2664 4.95815C21.2802 5.51616 20.9837 6.03599 20.4963 6.30825L12.0541 11.024C11.0995 11.5572 9.92067 10.885 9.89372 9.79211Z" fill="url(#paint5_linear)"/>
<path d="M10.545 21.4864C10.055 21.2171 9.75142 20.6984 9.75562 20.1375L9.83213 9.92318C9.84101 8.7382 11.1012 7.99475 12.1365 8.56367C12.6488 8.84514 12.9637 9.38965 12.9533 9.97581L12.7716 20.1884C12.7513 21.3263 11.5395 22.0328 10.545 21.4864Z" fill="white"/>
<path d="M10.545 21.4864C10.055 21.2171 9.75142 20.6984 9.75562 20.1375L9.83213 9.92318C9.84101 8.7382 11.1012 7.99475 12.1365 8.56367C12.6488 8.84514 12.9637 9.38965 12.9533 9.97581L12.7716 20.1884C12.7513 21.3263 11.5395 22.0328 10.545 21.4864Z" fill="url(#paint6_linear)"/>
<path d="M5.78654 7.35265C5.77337 6.81882 6.05411 6.32067 6.51765 6.05536L14.9101 1.25178C15.8981 0.686317 17.1312 1.38093 17.1593 2.5187C17.173 3.07671 16.8765 3.59654 16.3891 3.86879L7.94695 8.5845C6.99236 9.11772 5.81349 8.44554 5.78654 7.35265Z" fill="white"/>
<path d="M5.78654 7.35265C5.77337 6.81882 6.05411 6.32067 6.51765 6.05536L14.9101 1.25178C15.8981 0.686317 17.1312 1.38093 17.1593 2.5187C17.173 3.07671 16.8765 3.59654 16.3891 3.86879L7.94695 8.5845C6.99236 9.11772 5.81349 8.44554 5.78654 7.35265Z" fill="url(#paint7_linear)"/>
<path d="M6.43761 19.047C5.94758 18.7778 5.644 18.2591 5.6482 17.6982L5.72471 7.48385C5.73359 6.29887 6.99375 5.55542 8.02911 6.12434C8.54135 6.40581 8.85628 6.95032 8.84585 7.53648L8.66416 17.7491C8.64392 18.887 7.43205 19.5935 6.43761 19.047Z" fill="white"/>
<path d="M6.43761 19.047C5.94758 18.7778 5.644 18.2591 5.6482 17.6982L5.72471 7.48385C5.73359 6.29887 6.99375 5.55542 8.02911 6.12434C8.54135 6.40581 8.85628 6.95032 8.84585 7.53648L8.66416 17.7491C8.64392 18.887 7.43205 19.5935 6.43761 19.047Z" fill="url(#paint8_linear)"/>
<defs>
<linearGradient id="paint0_linear" x1="51.7326" y1="-5.12685" x2="51.7326" y2="30.3674" gradientUnits="userSpaceOnUse">
<stop stop-color="white"/>
<stop offset="1" stop-color="white" stop-opacity="0"/>
</linearGradient>
<linearGradient id="paint1_linear" x1="19.7197" y1="4.94165" x2="19.9574" y2="14.4114" gradientUnits="userSpaceOnUse">
<stop stop-color="white"/>
<stop offset="1" stop-color="white" stop-opacity="0"/>
</linearGradient>
<linearGradient id="paint2_linear" x1="19.8459" y1="10.0614" x2="20.0837" y2="19.5311" gradientUnits="userSpaceOnUse">
<stop stop-color="white"/>
<stop offset="1" stop-color="white" stop-opacity="0"/>
</linearGradient>
<linearGradient id="paint3_linear" x1="19.9731" y1="15.2202" x2="20.2109" y2="24.6899" gradientUnits="userSpaceOnUse">
<stop stop-color="white"/>
<stop offset="1" stop-color="white" stop-opacity="0"/>
</linearGradient>
<linearGradient id="paint4_linear" x1="11.2371" y1="14.9867" x2="19.8917" y2="19.6588" gradientUnits="userSpaceOnUse">
<stop stop-color="white"/>
<stop offset="1" stop-color="white" stop-opacity="0"/>
</linearGradient>
<linearGradient id="paint5_linear" x1="15.4619" y1="2.58362" x2="15.6996" y2="12.0533" gradientUnits="userSpaceOnUse">
<stop stop-color="white"/>
<stop offset="1" stop-color="white" stop-opacity="0"/>
</linearGradient>
<linearGradient id="paint6_linear" x1="6.97957" y1="12.6286" x2="15.6341" y2="17.3006" gradientUnits="userSpaceOnUse">
<stop stop-color="white"/>
<stop offset="1" stop-color="white" stop-opacity="0"/>
</linearGradient>
<linearGradient id="paint7_linear" x1="11.3547" y1="0.144168" x2="11.5925" y2="9.61388" gradientUnits="userSpaceOnUse">
<stop stop-color="white"/>
<stop offset="1" stop-color="white" stop-opacity="0"/>
</linearGradient>
<linearGradient id="paint8_linear" x1="2.87215" y1="10.1893" x2="11.5267" y2="14.8613" gradientUnits="userSpaceOnUse">
<stop stop-color="white"/>
<stop offset="1" stop-color="white" stop-opacity="0"/>
</linearGradient>
</defs>
</svg>
