<svg width="133" height="46" viewBox="0 0 133 46" fill="none" xmlns="http://www.w3.org/2000/svg">
<rect x="1" y="1" width="131" height="43.1942" rx="11" stroke="url(#paint0_linear)" stroke-opacity="0.5" stroke-width="2"/>
<g clip-path="url(#clip0)">
<path d="M31.2459 10.2715C29.9379 10.362 28.4091 11.1992 27.5183 12.2894C26.7056 13.2784 26.037 14.7474 26.2977 16.1749C27.7268 16.2194 29.2034 15.3623 30.059 14.2536C30.8595 13.2217 31.4651 11.7619 31.2459 10.2715Z" fill="url(#paint1_linear)" fill-opacity="0.5"/>
<path d="M36.4149 18.5026C35.1591 16.9278 33.3942 16.0139 31.7274 16.0139C29.527 16.0139 28.5963 17.0673 27.0675 17.0673C25.4912 17.0673 24.2937 16.017 22.3908 16.017C20.5216 16.017 18.5313 17.1593 17.2693 19.1128C15.4952 21.8637 15.7988 27.0358 18.6739 31.4411C19.7028 33.0174 21.0767 34.79 22.8738 34.8053C24.4731 34.8207 24.9239 33.7795 27.0905 33.7688C29.2572 33.7565 29.6681 34.8191 31.2644 34.8023C33.063 34.7885 34.512 32.8242 35.5409 31.2479C36.2785 30.1178 36.5529 29.5489 37.1249 28.2732C32.9649 26.6892 32.2978 20.7735 36.4149 18.5026Z" fill="url(#paint2_linear)" fill-opacity="0.5"/>
</g>
<path d="M54.477 33.1052H55.845L56.589 31.0172H59.649L60.393 33.1052H61.917L58.989 24.8732H57.477L54.477 33.1052ZM58.089 26.6252H58.125L59.277 29.9132H56.937L58.089 26.6252ZM62.9417 34.8932H64.3217V32.8652C64.6217 33.0332 65.0777 33.2132 65.7617 33.2132C67.4417 33.2132 68.5577 32.3012 68.5577 29.9852V29.8292C68.5577 27.5612 67.3937 26.8172 66.1097 26.8172C65.3297 26.8172 64.6937 27.0812 64.3217 27.4532H64.2737V26.9252H62.9417V34.8932ZM65.5697 32.1692C65.0297 32.1692 64.5617 32.0012 64.3217 31.8092V28.3052C64.5617 28.1372 65.0297 27.9452 65.6177 27.9452C66.5897 27.9452 67.1177 28.3892 67.1177 29.9132V30.1652C67.1177 31.6652 66.5537 32.1692 65.5697 32.1692ZM69.8674 34.8932H71.2474V32.8652C71.5474 33.0332 72.0034 33.2132 72.6874 33.2132C74.3674 33.2132 75.4834 32.3012 75.4834 29.9852V29.8292C75.4834 27.5612 74.3194 26.8172 73.0354 26.8172C72.2554 26.8172 71.6194 27.0812 71.2474 27.4532H71.1994V26.9252H69.8674V34.8932ZM72.4954 32.1692C71.9554 32.1692 71.4874 32.0012 71.2474 31.8092V28.3052C71.4874 28.1372 71.9554 27.9452 72.5434 27.9452C73.5154 27.9452 74.0434 28.3892 74.0434 29.9132V30.1652C74.0434 31.6652 73.4794 32.1692 72.4954 32.1692ZM82.0576 33.2492C84.0496 33.2492 84.9976 32.2772 84.9976 30.7172C84.9976 29.2532 84.2176 28.7132 82.9216 28.3412L82.1536 28.1012C81.3376 27.8732 81.0976 27.5972 81.0976 26.9492C81.0976 26.2892 81.5776 25.9292 82.4416 25.9292C83.3536 25.9292 84.0256 26.1212 84.5416 26.3372V25.1852C84.0856 24.9452 83.4976 24.7412 82.4176 24.7412C80.5576 24.7412 79.6576 25.6892 79.6576 27.0812C79.6576 28.4732 80.3656 29.0972 81.5296 29.4212L82.3096 29.6372C83.2096 29.9132 83.5096 30.1772 83.5096 30.8612C83.5096 31.6052 83.0416 32.0612 81.9376 32.0612C81.0376 32.0612 80.2576 31.8452 79.5976 31.5572V32.7212C80.1616 33.0212 80.9776 33.2492 82.0576 33.2492ZM88.4443 33.1772C89.0203 33.1772 89.3563 33.0452 89.5963 32.9252V32.0012C89.3803 32.0612 89.1283 32.0972 88.8883 32.0972C88.2403 32.0972 88.0483 31.9052 88.0483 31.3892V28.0052H89.5243V26.9252H88.0483V25.4732H86.6923V26.9252H85.8283V28.0052H86.6923V31.5812C86.6923 32.7452 87.3763 33.1772 88.4443 33.1772ZM93.4357 33.2132C95.1637 33.2132 96.3637 32.0732 96.3637 30.0812V29.9132C96.3637 27.9452 95.2957 26.8172 93.4477 26.8172C91.7077 26.8172 90.5077 27.9692 90.5077 29.9492V30.1412C90.5077 32.0732 91.5517 33.2132 93.4357 33.2132ZM93.4597 32.1692C92.5957 32.1692 91.9237 31.7372 91.9237 30.1412V29.8532C91.9237 28.5212 92.4757 27.8612 93.4237 27.8612C94.2637 27.8612 94.9237 28.2932 94.9237 29.9012V30.2012C94.9237 31.5332 94.3837 32.1692 93.4597 32.1692ZM97.6409 33.1052H99.0209V28.5092C99.4169 28.2572 99.9689 28.1012 100.521 28.1012C100.665 28.1012 100.869 28.1132 101.025 28.1372V26.9132C100.965 26.8892 100.809 26.8772 100.641 26.8772C99.9929 26.8772 99.3569 27.2012 99.0209 27.6452H98.9729V26.9252H97.6409V33.1052ZM104.876 33.2132C105.92 33.2132 106.64 32.9132 107.06 32.6372V31.6772C106.52 31.9532 105.944 32.1332 105.152 32.1332C103.976 32.1332 103.316 31.6772 103.232 30.3932H107.264V29.8172C107.264 27.8492 106.472 26.8292 104.648 26.8292C103.076 26.8292 101.816 27.8492 101.816 29.9252V30.0932C101.816 32.0492 102.824 33.2132 104.876 33.2132ZM104.624 27.8492C105.428 27.8492 105.86 28.2812 105.86 29.4452H103.232C103.328 28.1852 103.988 27.8492 104.624 27.8492Z" fill="url(#paint3_linear)" fill-opacity="0.5"/>
<path d="M44.8237 17.6186H46.9837C49.1837 17.6186 50.2137 16.3686 50.2137 14.2086V13.9986C50.2137 11.8086 49.0437 10.7686 46.9637 10.7686H44.8237V17.6186ZM45.8537 16.7586V11.6286H46.8837C48.3037 11.6286 49.1037 12.1986 49.1037 13.9986V14.3386C49.1037 16.0586 48.4437 16.7586 47.0037 16.7586H45.8537ZM53.3748 17.7086C54.7648 17.7086 55.7348 16.7486 55.7348 15.1286V14.9786C55.7348 13.3686 54.8648 12.4186 53.3848 12.4186C51.9648 12.4186 51.0048 13.3886 51.0048 15.0086V15.1786C51.0048 16.7686 51.8648 17.7086 53.3748 17.7086ZM53.3848 16.9386C52.6248 16.9386 52.0148 16.5386 52.0148 15.1886V14.9186C52.0148 13.7986 52.5048 13.2086 53.3648 13.2086C54.1048 13.2086 54.7048 13.6086 54.7048 14.9586V15.2286C54.7048 16.3486 54.2148 16.9386 53.3848 16.9386ZM57.7242 17.6186H58.7142L59.8042 13.9886H59.8442L60.9342 17.6186H61.9042L63.3342 12.5186H62.4142L61.4542 16.3486H61.4142L60.2942 12.5186H59.4542L58.3542 16.3486H58.3042L57.3342 12.5186H56.2942L57.7242 17.6186ZM64.1954 17.6186H65.1754V13.5786C65.5254 13.4086 66.0154 13.2586 66.4454 13.2586C67.2154 13.2586 67.3754 13.4886 67.3754 14.0486V17.6186H68.3654V13.8186C68.3654 12.8286 67.8854 12.4186 66.8954 12.4186C66.2754 12.4186 65.6154 12.6586 65.1854 12.9586H65.1454V12.5186H64.1954V17.6186ZM69.6844 17.6186H70.6644V10.3186H69.6844V17.6186ZM74.0974 17.7086C75.4874 17.7086 76.4574 16.7486 76.4574 15.1286V14.9786C76.4574 13.3686 75.5874 12.4186 74.1074 12.4186C72.6874 12.4186 71.7274 13.3886 71.7274 15.0086V15.1786C71.7274 16.7686 72.5874 17.7086 74.0974 17.7086ZM74.1074 16.9386C73.3474 16.9386 72.7374 16.5386 72.7374 15.1886V14.9186C72.7374 13.7986 73.2274 13.2086 74.0874 13.2086C74.8274 13.2086 75.4274 13.6086 75.4274 14.9586V15.2286C75.4274 16.3486 74.9374 16.9386 74.1074 16.9386ZM78.7369 17.7086C79.3969 17.7086 79.8169 17.4886 80.0569 17.1886H80.1169L80.2069 17.6186H81.0169V13.9286C81.0169 12.8986 80.3469 12.4186 79.1969 12.4186C78.5669 12.4186 78.0469 12.5186 77.5769 12.7086V13.3986C77.8869 13.3286 78.3069 13.2486 78.8069 13.2486C79.7069 13.2486 80.0269 13.4186 80.0269 14.1786V14.6186L78.7469 14.7686C77.7569 14.8986 77.1569 15.3486 77.1569 16.2586C77.1569 17.2486 77.8169 17.7086 78.7369 17.7086ZM78.9969 16.9886C78.4869 16.9886 78.1569 16.7386 78.1569 16.2186C78.1569 15.6886 78.4269 15.4686 78.9669 15.4086L80.0269 15.2986V16.6586C79.8269 16.8486 79.4169 16.9886 78.9969 16.9886ZM84.1109 17.7086C84.7809 17.7086 85.2709 17.5086 85.5709 17.2086H85.6209L85.7109 17.6186H86.5509V10.3186H85.5609V12.7286C85.3209 12.5886 84.9109 12.4186 84.2909 12.4186C82.9809 12.4186 82.0309 13.2286 82.0309 15.0986V15.2286C82.0309 17.0886 83.1209 17.7086 84.1109 17.7086ZM84.4509 16.9286C83.6109 16.9286 83.0409 16.5286 83.0409 15.1886V14.9786C83.0409 13.6786 83.5709 13.2386 84.4409 13.2386C84.9209 13.2386 85.3609 13.3486 85.5609 13.5186V16.5486C85.3509 16.7086 84.9809 16.9286 84.4509 16.9286ZM92.5545 17.7086C93.9445 17.7086 94.9145 16.7486 94.9145 15.1286V14.9786C94.9145 13.3686 94.0445 12.4186 92.5645 12.4186C91.1445 12.4186 90.1845 13.3886 90.1845 15.0086V15.1786C90.1845 16.7686 91.0445 17.7086 92.5545 17.7086ZM92.5645 16.9386C91.8045 16.9386 91.1945 16.5386 91.1945 15.1886V14.9186C91.1945 13.7986 91.6845 13.2086 92.5445 13.2086C93.2845 13.2086 93.8845 13.6086 93.8845 14.9586V15.2286C93.8845 16.3486 93.3945 16.9386 92.5645 16.9386ZM95.9239 17.6186H96.9039V13.5786C97.2539 13.4086 97.7439 13.2586 98.1739 13.2586C98.9439 13.2586 99.1039 13.4886 99.1039 14.0486V17.6186H100.094V13.8186C100.094 12.8286 99.6139 12.4186 98.6239 12.4186C98.0039 12.4186 97.3439 12.6586 96.9139 12.9586H96.8739V12.5186H95.9239V17.6186ZM105.7 17.6686C106.17 17.6686 106.4 17.5686 106.61 17.4786V16.8186C106.41 16.8486 106.19 16.8786 105.98 16.8786C105.43 16.8786 105.28 16.7086 105.28 16.2486V13.3086H106.51V12.5186H105.28V11.3186H104.29V12.5186H103.57V13.3086H104.29V16.3886C104.29 17.3186 104.85 17.6686 105.7 17.6686ZM107.574 17.6186H108.554V13.5786C108.904 13.4086 109.394 13.2586 109.824 13.2586C110.594 13.2586 110.754 13.4886 110.754 14.0486V17.6186H111.744V13.8186C111.744 12.8286 111.264 12.4186 110.274 12.4186C109.654 12.4186 109.024 12.6486 108.604 12.9386H108.554V10.3186H107.574V17.6186ZM115.203 17.7086C116.053 17.7086 116.643 17.4486 116.963 17.2186V16.5286C116.493 16.7386 116.053 16.8986 115.383 16.8986C114.383 16.8986 113.813 16.5086 113.743 15.3386H117.123V14.8586C117.123 13.2486 116.453 12.4186 115.013 12.4186C113.783 12.4186 112.733 13.2486 112.733 14.9986V15.1286C112.733 16.7286 113.553 17.7086 115.203 17.7086ZM114.973 13.1986C115.713 13.1986 116.093 13.5886 116.093 14.6186H113.743C113.823 13.4786 114.433 13.1986 114.973 13.1986Z" fill="url(#paint4_linear)" fill-opacity="0.5"/>
<defs>
<linearGradient id="paint0_linear" x1="-4.95463e-07" y1="22.5971" x2="133" y2="22.5971" gradientUnits="userSpaceOnUse">
<stop stop-color="#6B40FF"/>
<stop offset="0.494792" stop-color="#1F1AFF"/>
<stop offset="0.494892" stop-color="#221EFF"/>
<stop offset="1" stop-color="#8099FF"/>
</linearGradient>
<linearGradient id="paint1_linear" x1="26.2405" y1="13.224" x2="31.2912" y2="13.224" gradientUnits="userSpaceOnUse">
<stop stop-color="#6B40FF"/>
<stop offset="0.494792" stop-color="#1F1AFF"/>
<stop offset="0.494892" stop-color="#221EFF"/>
<stop offset="1" stop-color="#8099FF"/>
</linearGradient>
<linearGradient id="paint2_linear" x1="16.1689" y1="25.4097" x2="37.1249" y2="25.4097" gradientUnits="userSpaceOnUse">
<stop stop-color="#6B40FF"/>
<stop offset="0.494792" stop-color="#1F1AFF"/>
<stop offset="0.494892" stop-color="#221EFF"/>
<stop offset="1" stop-color="#8099FF"/>
</linearGradient>
<linearGradient id="paint3_linear" x1="50.3298" y1="30.5544" x2="111.714" y2="30.5544" gradientUnits="userSpaceOnUse">
<stop stop-color="#6B40FF"/>
<stop offset="0.494792" stop-color="#1F1AFF"/>
<stop offset="0.494892" stop-color="#221EFF"/>
<stop offset="1" stop-color="#8099FF"/>
</linearGradient>
<linearGradient id="paint4_linear" x1="38.6826" y1="15.8591" x2="122.802" y2="15.8591" gradientUnits="userSpaceOnUse">
<stop stop-color="#6B40FF"/>
<stop offset="0.494792" stop-color="#1F1AFF"/>
<stop offset="0.494892" stop-color="#221EFF"/>
<stop offset="1" stop-color="#8099FF"/>
</linearGradient>
<clipPath id="clip0">
<rect width="24.534" height="24.534" fill="white" transform="translate(14.3799 10.2715)"/>
</clipPath>
</defs>
</svg>
