<?xml version="1.0" standalone="no"?>
<!DOCTYPE svg PUBLIC "-//W3C//DTD SVG 20010904//EN"
 "http://www.w3.org/TR/2001/REC-SVG-20010904/DTD/svg10.dtd">
<svg width="129" height="45" viewBox="0 0 129 45" fill="none" xmlns="http://www.w3.org/2000/svg">
<path d="M64.6378 12.6476V20.0669H74.5663V24.7728H64.6378V32.616H75.8338V37.4492H58.7229V7.81445H75.8338V12.6476H64.6378ZM87.2505 32.4465H100.517V37.4492H80.4062V32.8704L93.5879 12.8596H80.4062V7.85685H100.517V12.4356L87.2505 32.4465ZM129 7.85685L119.029 27.147V37.4492H113.114V27.147L103.101 7.85685H109.777L116.114 21.3811L122.409 7.85685H129Z" fill="white"/>
<path d="M64.6378 12.6476V20.0669H74.5663V24.7728H64.6378V32.616H75.8338V37.4492H58.7229V7.81445H75.8338V12.6476H64.6378ZM87.2505 32.4465H100.517V37.4492H80.4062V32.8704L93.5879 12.8596H80.4062V7.85685H100.517V12.4356L87.2505 32.4465ZM129 7.85685L119.029 27.147V37.4492H113.114V27.147L103.101 7.85685H109.777L116.114 21.3811L122.409 7.85685H129Z" fill="url(#paint0_linear)"/>
<path d="M25.3548 21.7685C25.3312 20.812 25.8342 19.9195 26.6647 19.4442L41.7012 10.8378C43.4712 9.82464 45.6806 11.0691 45.7309 13.1076C45.7556 14.1074 45.2242 15.0388 44.351 15.5266L29.2255 23.9755C27.5152 24.9309 25.4031 23.7266 25.3548 21.7685Z" fill="white"/>
<path d="M25.3548 21.7685C25.3312 20.812 25.8342 19.9195 26.6647 19.4442L41.7012 10.8378C43.4712 9.82464 45.6806 11.0691 45.7309 13.1076C45.7556 14.1074 45.2242 15.0388 44.351 15.5266L29.2255 23.9755C27.5152 24.9309 25.4031 23.7266 25.3548 21.7685Z" fill="url(#paint1_linear)"/>
<path d="M25.5811 30.9417C25.5575 29.9853 26.0605 29.0927 26.891 28.6174L41.9275 20.011C43.6976 18.9979 45.9069 20.2424 45.9572 22.2809C45.9819 23.2806 45.4506 24.212 44.5773 24.6998L29.4518 33.1488C27.7415 34.1041 25.6294 32.8998 25.5811 30.9417Z" fill="white"/>
<path d="M25.5811 30.9417C25.5575 29.9853 26.0605 29.0927 26.891 28.6174L41.9275 20.011C43.6976 18.9979 45.9069 20.2424 45.9572 22.2809C45.9819 23.2806 45.4506 24.212 44.5773 24.6998L29.4518 33.1488C27.7415 34.1041 25.6294 32.8998 25.5811 30.9417Z" fill="url(#paint2_linear)"/>
<path d="M25.809 40.1843C25.7854 39.2278 26.2884 38.3353 27.1189 37.8599L42.1554 29.2535C43.9255 28.2404 46.1348 29.4849 46.1851 31.5234C46.2098 32.5232 45.6785 33.4545 44.8052 33.9423L29.6797 42.3913C27.9694 43.3467 25.8573 42.1423 25.809 40.1843Z" fill="white"/>
<path d="M25.809 40.1843C25.7854 39.2278 26.2884 38.3353 27.1189 37.8599L42.1554 29.2535C43.9255 28.2404 46.1348 29.4849 46.1851 31.5234C46.2098 32.5232 45.6785 33.4545 44.8052 33.9423L29.6797 42.3913C27.9694 43.3467 25.8573 42.1423 25.809 40.1843Z" fill="url(#paint3_linear)"/>
<path d="M26.5215 42.7214C25.6435 42.2389 25.0996 41.3096 25.1071 40.3047L25.2442 22.004C25.2601 19.8809 27.5179 18.5489 29.3729 19.5682C30.2907 20.0725 30.8549 21.0481 30.8362 22.0983L30.5107 40.3959C30.4744 42.4347 28.3032 43.7004 26.5215 42.7214Z" fill="white"/>
<path d="M26.5215 42.7214C25.6435 42.2389 25.0996 41.3096 25.1071 40.3047L25.2442 22.004C25.2601 19.8809 27.5179 18.5489 29.3729 19.5682C30.2907 20.0725 30.8549 21.0481 30.8362 22.0983L30.5107 40.3959C30.4744 42.4347 28.3032 43.7004 26.5215 42.7214Z" fill="url(#paint4_linear)"/>
<path d="M17.7261 17.5436C17.7025 16.5872 18.2055 15.6947 19.036 15.2193L34.0725 6.61291C35.8426 5.59978 38.052 6.84429 38.1022 8.88279C38.1269 9.88256 37.5956 10.8139 36.7223 11.3017L21.5968 19.7507C19.8865 20.706 17.7744 19.5017 17.7261 17.5436Z" fill="white"/>
<path d="M17.7261 17.5436C17.7025 16.5872 18.2055 15.6947 19.036 15.2193L34.0725 6.61291C35.8426 5.59978 38.052 6.84429 38.1022 8.88279C38.1269 9.88256 37.5956 10.8139 36.7223 11.3017L21.5968 19.7507C19.8865 20.706 17.7744 19.5017 17.7261 17.5436Z" fill="url(#paint5_linear)"/>
<path d="M18.8928 38.4956C18.0148 38.0131 17.4709 37.0838 17.4785 36.0789L17.6155 17.7782C17.6314 15.6551 19.8892 14.3231 21.7443 15.3424C22.662 15.8467 23.2263 16.8223 23.2076 17.8725L22.8821 36.17C22.8458 38.2088 20.6745 39.4746 18.8928 38.4956Z" fill="white"/>
<path d="M18.8928 38.4956C18.0148 38.0131 17.4709 37.0838 17.4785 36.0789L17.6155 17.7782C17.6314 15.6551 19.8892 14.3231 21.7443 15.3424C22.662 15.8467 23.2263 16.8223 23.2076 17.8725L22.8821 36.17C22.8458 38.2088 20.6745 39.4746 18.8928 38.4956Z" fill="url(#paint6_linear)"/>
<path d="M10.3675 13.173C10.3439 12.2166 10.8469 11.3241 11.6774 10.8487L26.7139 2.2423C28.4839 1.22918 30.6933 2.47369 30.7436 4.51218C30.7683 5.51195 30.2369 6.44332 29.3637 6.93111L14.2382 15.3801C12.5279 16.3354 10.4158 15.1311 10.3675 13.173Z" fill="white"/>
<path d="M10.3675 13.173C10.3439 12.2166 10.8469 11.3241 11.6774 10.8487L26.7139 2.2423C28.4839 1.22918 30.6933 2.47369 30.7436 4.51218C30.7683 5.51195 30.2369 6.44332 29.3637 6.93111L14.2382 15.3801C12.5279 16.3354 10.4158 15.1311 10.3675 13.173Z" fill="url(#paint7_linear)"/>
<path d="M11.5341 34.1254C10.6561 33.643 10.1122 32.7137 10.1197 31.7088L10.2568 13.4081C10.2727 11.285 12.5305 9.95295 14.3855 10.9723C15.3032 11.4766 15.8675 12.4522 15.8488 13.5023L15.5233 31.7999C15.487 33.8387 13.3158 35.1045 11.5341 34.1254Z" fill="white"/>
<path d="M11.5341 34.1254C10.6561 33.643 10.1122 32.7137 10.1197 31.7088L10.2568 13.4081C10.2727 11.285 12.5305 9.95295 14.3855 10.9723C15.3032 11.4766 15.8675 12.4522 15.8488 13.5023L15.5233 31.7999C15.487 33.8387 13.3158 35.1045 11.5341 34.1254Z" fill="url(#paint8_linear)"/>
<defs>
<linearGradient id="paint0_linear" x1="92.6876" y1="-9.1863" x2="92.6876" y2="54.4075" gradientUnits="userSpaceOnUse">
<stop stop-color="white"/>
<stop offset="1" stop-color="white" stop-opacity="0"/>
</linearGradient>
<linearGradient id="paint1_linear" x1="35.3311" y1="8.85328" x2="35.757" y2="25.8198" gradientUnits="userSpaceOnUse">
<stop stop-color="white"/>
<stop offset="1" stop-color="white" stop-opacity="0"/>
</linearGradient>
<linearGradient id="paint2_linear" x1="35.5574" y1="18.0265" x2="35.9834" y2="34.9931" gradientUnits="userSpaceOnUse">
<stop stop-color="white"/>
<stop offset="1" stop-color="white" stop-opacity="0"/>
</linearGradient>
<linearGradient id="paint3_linear" x1="35.7853" y1="27.2691" x2="36.2113" y2="44.2356" gradientUnits="userSpaceOnUse">
<stop stop-color="white"/>
<stop offset="1" stop-color="white" stop-opacity="0"/>
</linearGradient>
<linearGradient id="paint4_linear" x1="20.1334" y1="26.8512" x2="35.6394" y2="35.2219" gradientUnits="userSpaceOnUse">
<stop stop-color="white"/>
<stop offset="1" stop-color="white" stop-opacity="0"/>
</linearGradient>
<linearGradient id="paint5_linear" x1="27.7024" y1="4.62843" x2="28.1284" y2="21.595" gradientUnits="userSpaceOnUse">
<stop stop-color="white"/>
<stop offset="1" stop-color="white" stop-opacity="0"/>
</linearGradient>
<linearGradient id="paint6_linear" x1="12.5047" y1="22.6253" x2="28.0107" y2="30.9961" gradientUnits="userSpaceOnUse">
<stop stop-color="white"/>
<stop offset="1" stop-color="white" stop-opacity="0"/>
</linearGradient>
<linearGradient id="paint7_linear" x1="20.3438" y1="0.257823" x2="20.7697" y2="17.2244" gradientUnits="userSpaceOnUse">
<stop stop-color="white"/>
<stop offset="1" stop-color="white" stop-opacity="0"/>
</linearGradient>
<linearGradient id="paint8_linear" x1="5.14593" y1="18.2552" x2="20.6519" y2="26.626" gradientUnits="userSpaceOnUse">
<stop stop-color="white"/>
<stop offset="1" stop-color="white" stop-opacity="0"/>
</linearGradient>
</defs>
</svg>
