<svg width="47" height="45" viewBox="0 0 47 45" fill="none" xmlns="http://www.w3.org/2000/svg">
<path d="M25.3548 21.769C25.3312 20.8125 25.8342 19.92 26.6647 19.4447L41.7012 10.8382C43.4713 9.82512 45.6807 11.0696 45.731 13.1081C45.7556 14.1079 45.2243 15.0393 44.3511 15.5271L29.2256 23.976C27.5153 24.9314 25.4031 23.7271 25.3548 21.769Z" fill="#825EFF"/>
<path d="M25.3548 21.769C25.3312 20.8125 25.8342 19.92 26.6647 19.4447L41.7012 10.8382C43.4713 9.82512 45.6807 11.0696 45.731 13.1081C45.7556 14.1079 45.2243 15.0393 44.3511 15.5271L29.2256 23.976C27.5153 24.9314 25.4031 23.7271 25.3548 21.769Z" fill="url(#paint0_linear)"/>
<path d="M25.5811 30.9423C25.5575 29.9859 26.0605 29.0933 26.891 28.618L41.9275 20.0116C43.6976 18.9985 45.9069 20.243 45.9572 22.2815C45.9819 23.2812 45.4506 24.2126 44.5773 24.7004L29.4518 33.1494C27.7415 34.1047 25.6294 32.9004 25.5811 30.9423Z" fill="#825EFF"/>
<path d="M25.5811 30.9423C25.5575 29.9859 26.0605 29.0933 26.891 28.618L41.9275 20.0116C43.6976 18.9985 45.9069 20.243 45.9572 22.2815C45.9819 23.2812 45.4506 24.2126 44.5773 24.7004L29.4518 33.1494C27.7415 34.1047 25.6294 32.9004 25.5811 30.9423Z" fill="url(#paint1_linear)"/>
<path d="M25.809 40.1847C25.7854 39.2283 26.2884 38.3358 27.1189 37.8604L42.1554 29.254C43.9255 28.2409 46.1348 29.4854 46.1851 31.5239C46.2098 32.5237 45.6785 33.455 44.8052 33.9428L29.6797 42.3918C27.9694 43.3472 25.8573 42.1428 25.809 40.1847Z" fill="#825EFF"/>
<path d="M25.809 40.1847C25.7854 39.2283 26.2884 38.3358 27.1189 37.8604L42.1554 29.254C43.9255 28.2409 46.1348 29.4854 46.1851 31.5239C46.2098 32.5237 45.6785 33.455 44.8052 33.9428L29.6797 42.3918C27.9694 43.3472 25.8573 42.1428 25.809 40.1847Z" fill="url(#paint2_linear)"/>
<path d="M26.5214 42.7219C25.6434 42.2394 25.0995 41.3101 25.1071 40.3052L25.2441 22.0045C25.26 19.8814 27.5178 18.5494 29.3729 19.5687C30.2906 20.073 30.8549 21.0486 30.8362 22.0988L30.5107 40.3963C30.4744 42.4352 28.3031 43.7009 26.5214 42.7219Z" fill="#825EFF"/>
<path d="M26.5214 42.7219C25.6434 42.2394 25.0995 41.3101 25.1071 40.3052L25.2441 22.0045C25.26 19.8814 27.5178 18.5494 29.3729 19.5687C30.2906 20.073 30.8549 21.0486 30.8362 22.0988L30.5107 40.3963C30.4744 42.4352 28.3031 43.7009 26.5214 42.7219Z" fill="url(#paint3_linear)"/>
<path d="M17.7261 17.5441C17.7025 16.5877 18.2055 15.6951 19.036 15.2198L34.0725 6.61339C35.8426 5.60027 38.052 6.84478 38.1022 8.88328C38.1269 9.88305 37.5956 10.8144 36.7223 11.3022L21.5968 19.7512C19.8865 20.7065 17.7744 19.5022 17.7261 17.5441Z" fill="#2E29FF"/>
<path d="M17.7261 17.5441C17.7025 16.5877 18.2055 15.6951 19.036 15.2198L34.0725 6.61339C35.8426 5.60027 38.052 6.84478 38.1022 8.88328C38.1269 9.88305 37.5956 10.8144 36.7223 11.3022L21.5968 19.7512C19.8865 20.7065 17.7744 19.5022 17.7261 17.5441Z" fill="url(#paint4_linear)"/>
<path d="M18.8928 38.496C18.0148 38.0136 17.4709 37.0843 17.4785 36.0794L17.6155 17.7787C17.6314 15.6556 19.8892 14.3236 21.7443 15.3429C22.662 15.8472 23.2263 16.8228 23.2076 17.873L22.8821 36.1705C22.8458 38.2093 20.6745 39.4751 18.8928 38.496Z" fill="#2E29FF"/>
<path d="M18.8928 38.496C18.0148 38.0136 17.4709 37.0843 17.4785 36.0794L17.6155 17.7787C17.6314 15.6556 19.8892 14.3236 21.7443 15.3429C22.662 15.8472 23.2263 16.8228 23.2076 17.873L22.8821 36.1705C22.8458 38.2093 20.6745 39.4751 18.8928 38.496Z" fill="url(#paint5_linear)"/>
<path d="M10.3675 13.1735C10.3439 12.2171 10.8469 11.3245 11.6774 10.8492L26.7139 2.24279C28.4839 1.22967 30.6933 2.47417 30.7436 4.51267C30.7683 5.51244 30.2369 6.44381 29.3637 6.9316L14.2382 15.3806C12.5279 16.3359 10.4158 15.1316 10.3675 13.1735Z" fill="#0033FF"/>
<path d="M10.3675 13.1735C10.3439 12.2171 10.8469 11.3245 11.6774 10.8492L26.7139 2.24279C28.4839 1.22967 30.6933 2.47417 30.7436 4.51267C30.7683 5.51244 30.2369 6.44381 29.3637 6.9316L14.2382 15.3806C12.5279 16.3359 10.4158 15.1316 10.3675 13.1735Z" fill="url(#paint6_linear)"/>
<path d="M11.5341 34.1259C10.6561 33.6435 10.1122 32.7141 10.1197 31.7093L10.2568 13.4086C10.2727 11.2855 12.5305 9.95344 14.3855 10.9728C15.3032 11.4771 15.8675 12.4526 15.8488 13.5028L15.5233 31.8004C15.487 33.8392 13.3158 35.105 11.5341 34.1259Z" fill="#0033FF"/>
<path d="M11.5341 34.1259C10.6561 33.6435 10.1122 32.7141 10.1197 31.7093L10.2568 13.4086C10.2727 11.2855 12.5305 9.95344 14.3855 10.9728C15.3032 11.4771 15.8675 12.4526 15.8488 13.5028L15.5233 31.8004C15.487 33.8392 13.3158 35.105 11.5341 34.1259Z" fill="url(#paint7_linear)"/>
<defs>
<linearGradient id="paint0_linear" x1="35.3312" y1="8.85377" x2="35.7571" y2="25.8203" gradientUnits="userSpaceOnUse">
<stop stop-color="white"/>
<stop offset="1" stop-color="white" stop-opacity="0"/>
</linearGradient>
<linearGradient id="paint1_linear" x1="35.5574" y1="18.0271" x2="35.9834" y2="34.9937" gradientUnits="userSpaceOnUse">
<stop stop-color="white"/>
<stop offset="1" stop-color="white" stop-opacity="0"/>
</linearGradient>
<linearGradient id="paint2_linear" x1="35.7853" y1="27.2695" x2="36.2113" y2="44.2361" gradientUnits="userSpaceOnUse">
<stop stop-color="white"/>
<stop offset="1" stop-color="white" stop-opacity="0"/>
</linearGradient>
<linearGradient id="paint3_linear" x1="20.1333" y1="26.8517" x2="35.6393" y2="35.2224" gradientUnits="userSpaceOnUse">
<stop stop-color="white"/>
<stop offset="1" stop-color="white" stop-opacity="0"/>
</linearGradient>
<linearGradient id="paint4_linear" x1="27.7024" y1="4.62892" x2="28.1284" y2="21.5955" gradientUnits="userSpaceOnUse">
<stop stop-color="white"/>
<stop offset="1" stop-color="white" stop-opacity="0"/>
</linearGradient>
<linearGradient id="paint5_linear" x1="12.5047" y1="22.6258" x2="28.0107" y2="30.9966" gradientUnits="userSpaceOnUse">
<stop stop-color="white"/>
<stop offset="1" stop-color="white" stop-opacity="0"/>
</linearGradient>
<linearGradient id="paint6_linear" x1="20.3438" y1="0.258312" x2="20.7697" y2="17.2249" gradientUnits="userSpaceOnUse">
<stop stop-color="white"/>
<stop offset="1" stop-color="white" stop-opacity="0"/>
</linearGradient>
<linearGradient id="paint7_linear" x1="5.14593" y1="18.2557" x2="20.6519" y2="26.6264" gradientUnits="userSpaceOnUse">
<stop stop-color="white"/>
<stop offset="1" stop-color="white" stop-opacity="0"/>
</linearGradient>
</defs>
</svg>
