<svg width="206" height="70" viewBox="0 0 206 70" fill="none" xmlns="http://www.w3.org/2000/svg">
<rect width="206" height="70" rx="20" fill="white"/>
<rect x="1.5" y="1.5" width="203" height="67" rx="18.5" stroke="url(#paint0_linear)" stroke-opacity="0.7" stroke-width="3"/>
<path d="M56.1234 19C54.0975 19.1401 51.7297 20.4369 50.3498 22.1255C49.0911 23.6573 48.0556 25.9326 48.4593 28.1437C50.6728 28.2126 52.9599 26.885 54.2851 25.1678C55.5249 23.5695 56.463 21.3085 56.1234 19Z" fill="url(#paint1_linear)" fill-opacity="0.5"/>
<path d="M64.1294 31.7488C62.1843 29.3097 59.4507 27.8942 56.8691 27.8942C53.461 27.8942 52.0194 29.5258 49.6515 29.5258C47.21 29.5258 45.3552 27.8989 42.4078 27.8989C39.5127 27.8989 36.43 29.6683 34.4753 32.694C31.7275 36.9547 32.1977 44.9656 36.6508 51.7889C38.2444 54.2304 40.3724 56.9759 43.1559 56.9997C45.633 57.0234 46.3313 55.4108 49.6871 55.3942C53.043 55.3752 53.6795 57.021 56.1518 56.9949C58.9377 56.9735 61.1821 53.9312 62.7757 51.4897C63.9181 49.7393 64.3432 48.8582 65.229 46.8822C58.7857 44.4288 57.7526 35.2661 64.1294 31.7488Z" fill="url(#paint2_linear)" fill-opacity="0.5"/>
<path d="M79.3339 50.098H81.8419L83.2059 46.27H88.8159L90.1799 50.098H92.9739L87.6059 35.006H84.8339L79.3339 50.098ZM85.9559 38.218H86.0219L88.1339 44.246H83.8439L85.9559 38.218ZM94.8524 53.376H97.3824V49.658C97.9324 49.966 98.7684 50.296 100.022 50.296C103.102 50.296 105.148 48.624 105.148 44.378V44.092C105.148 39.934 103.014 38.57 100.66 38.57C99.2304 38.57 98.0644 39.054 97.3824 39.736H97.2944V38.768H94.8524V53.376ZM99.6704 48.382C98.6804 48.382 97.8224 48.074 97.3824 47.722V41.298C97.8224 40.99 98.6804 40.638 99.7584 40.638C101.54 40.638 102.508 41.452 102.508 44.246V44.708C102.508 47.458 101.474 48.382 99.6704 48.382ZM107.55 53.376H110.08V49.658C110.63 49.966 111.466 50.296 112.72 50.296C115.8 50.296 117.846 48.624 117.846 44.378V44.092C117.846 39.934 115.712 38.57 113.358 38.57C111.928 38.57 110.762 39.054 110.08 39.736H109.992V38.768H107.55V53.376ZM112.368 48.382C111.378 48.382 110.52 48.074 110.08 47.722V41.298C110.52 40.99 111.378 40.638 112.456 40.638C114.238 40.638 115.206 41.452 115.206 44.246V44.708C115.206 47.458 114.172 48.382 112.368 48.382ZM129.898 50.362C133.55 50.362 135.288 48.58 135.288 45.72C135.288 43.036 133.858 42.046 131.482 41.364L130.074 40.924C128.578 40.506 128.138 40 128.138 38.812C128.138 37.602 129.018 36.942 130.602 36.942C132.274 36.942 133.506 37.294 134.452 37.69V35.578C133.616 35.138 132.538 34.764 130.558 34.764C127.148 34.764 125.498 36.502 125.498 39.054C125.498 41.606 126.796 42.75 128.93 43.344L130.36 43.74C132.01 44.246 132.56 44.73 132.56 45.984C132.56 47.348 131.702 48.184 129.678 48.184C128.028 48.184 126.598 47.788 125.388 47.26V49.394C126.422 49.944 127.918 50.362 129.898 50.362ZM141.607 50.23C142.663 50.23 143.279 49.988 143.719 49.768V48.074C143.323 48.184 142.861 48.25 142.421 48.25C141.233 48.25 140.881 47.898 140.881 46.952V40.748H143.587V38.768H140.881V36.106H138.395V38.768H136.811V40.748H138.395V47.304C138.395 49.438 139.649 50.23 141.607 50.23ZM150.758 50.296C153.926 50.296 156.126 48.206 156.126 44.554V44.246C156.126 40.638 154.168 38.57 150.78 38.57C147.59 38.57 145.39 40.682 145.39 44.312V44.664C145.39 48.206 147.304 50.296 150.758 50.296ZM150.802 48.382C149.218 48.382 147.986 47.59 147.986 44.664V44.136C147.986 41.694 148.998 40.484 150.736 40.484C152.276 40.484 153.486 41.276 153.486 44.224V44.774C153.486 47.216 152.496 48.382 150.802 48.382ZM158.468 50.098H160.998V41.672C161.724 41.21 162.736 40.924 163.748 40.924C164.012 40.924 164.386 40.946 164.672 40.99V38.746C164.562 38.702 164.276 38.68 163.968 38.68C162.78 38.68 161.614 39.274 160.998 40.088H160.91V38.768H158.468V50.098ZM171.733 50.296C173.647 50.296 174.967 49.746 175.737 49.24V47.48C174.747 47.986 173.691 48.316 172.239 48.316C170.083 48.316 168.873 47.48 168.719 45.126H176.111V44.07C176.111 40.462 174.659 38.592 171.315 38.592C168.433 38.592 166.123 40.462 166.123 44.268V44.576C166.123 48.162 167.971 50.296 171.733 50.296ZM171.271 40.462C172.745 40.462 173.537 41.254 173.537 43.388H168.719C168.895 41.078 170.105 40.462 171.271 40.462Z" fill="url(#paint3_linear)" fill-opacity="0.5"/>
<path d="M75.2138 26.412H78.2378C81.3178 26.412 82.7598 24.662 82.7598 21.638V21.344C82.7598 18.278 81.1218 16.822 78.2097 16.822H75.2138V26.412ZM76.6558 25.208V18.026H78.0978C80.0858 18.026 81.2058 18.824 81.2058 21.344V21.82C81.2058 24.228 80.2818 25.208 78.2658 25.208H76.6558ZM87.1853 26.538C89.1313 26.538 90.4893 25.194 90.4893 22.926V22.716C90.4893 20.462 89.2713 19.132 87.1993 19.132C85.2113 19.132 83.8673 20.49 83.8673 22.758V22.996C83.8673 25.222 85.0713 26.538 87.1853 26.538ZM87.1993 25.46C86.1353 25.46 85.2813 24.9 85.2813 23.01V22.632C85.2813 21.064 85.9673 20.238 87.1713 20.238C88.2073 20.238 89.0473 20.798 89.0473 22.688V23.066C89.0473 24.634 88.3613 25.46 87.1993 25.46ZM93.2745 26.412H94.6605L96.1865 21.33H96.2425L97.7685 26.412H99.1265L101.129 19.272H99.8405L98.4965 24.634H98.4405L96.8725 19.272H95.6965L94.1565 24.634H94.0865L92.7285 19.272H91.2725L93.2745 26.412ZM102.334 26.412H103.706V20.756C104.196 20.518 104.882 20.308 105.484 20.308C106.562 20.308 106.786 20.63 106.786 21.414V26.412H108.172V21.092C108.172 19.706 107.5 19.132 106.114 19.132C105.246 19.132 104.322 19.468 103.72 19.888H103.664V19.272H102.334V26.412ZM110.019 26.412H111.391V16.192H110.019V26.412ZM116.197 26.538C118.143 26.538 119.501 25.194 119.501 22.926V22.716C119.501 20.462 118.283 19.132 116.211 19.132C114.223 19.132 112.879 20.49 112.879 22.758V22.996C112.879 25.222 114.083 26.538 116.197 26.538ZM116.211 25.46C115.147 25.46 114.293 24.9 114.293 23.01V22.632C114.293 21.064 114.979 20.238 116.183 20.238C117.219 20.238 118.059 20.798 118.059 22.688V23.066C118.059 24.634 117.373 25.46 116.211 25.46ZM122.692 26.538C123.616 26.538 124.204 26.23 124.54 25.81H124.624L124.75 26.412H125.884V21.246C125.884 19.804 124.946 19.132 123.336 19.132C122.454 19.132 121.726 19.272 121.068 19.538V20.504C121.502 20.406 122.09 20.294 122.79 20.294C124.05 20.294 124.498 20.532 124.498 21.596V22.212L122.706 22.422C121.32 22.604 120.48 23.234 120.48 24.508C120.48 25.894 121.404 26.538 122.692 26.538ZM123.056 25.53C122.342 25.53 121.88 25.18 121.88 24.452C121.88 23.71 122.258 23.402 123.014 23.318L124.498 23.164V25.068C124.218 25.334 123.644 25.53 123.056 25.53ZM130.216 26.538C131.154 26.538 131.84 26.258 132.26 25.838H132.33L132.456 26.412H133.632V16.192H132.246V19.566C131.91 19.37 131.336 19.132 130.468 19.132C128.634 19.132 127.304 20.266 127.304 22.884V23.066C127.304 25.67 128.83 26.538 130.216 26.538ZM130.692 25.446C129.516 25.446 128.718 24.886 128.718 23.01V22.716C128.718 20.896 129.46 20.28 130.678 20.28C131.35 20.28 131.966 20.434 132.246 20.672V24.914C131.952 25.138 131.434 25.446 130.692 25.446ZM142.037 26.538C143.983 26.538 145.341 25.194 145.341 22.926V22.716C145.341 20.462 144.123 19.132 142.051 19.132C140.063 19.132 138.719 20.49 138.719 22.758V22.996C138.719 25.222 139.923 26.538 142.037 26.538ZM142.051 25.46C140.987 25.46 140.133 24.9 140.133 23.01V22.632C140.133 21.064 140.819 20.238 142.023 20.238C143.059 20.238 143.899 20.798 143.899 22.688V23.066C143.899 24.634 143.213 25.46 142.051 25.46ZM146.754 26.412H148.126V20.756C148.616 20.518 149.302 20.308 149.904 20.308C150.982 20.308 151.206 20.63 151.206 21.414V26.412H152.592V21.092C152.592 19.706 151.92 19.132 150.534 19.132C149.666 19.132 148.742 19.468 148.14 19.888H148.084V19.272H146.754V26.412ZM160.44 26.482C161.098 26.482 161.42 26.342 161.714 26.216V25.292C161.434 25.334 161.126 25.376 160.832 25.376C160.062 25.376 159.852 25.138 159.852 24.494V20.378H161.574V19.272H159.852V17.592H158.466V19.272H157.458V20.378H158.466V24.69C158.466 25.992 159.25 26.482 160.44 26.482ZM163.065 26.412H164.437V20.756C164.927 20.518 165.613 20.308 166.215 20.308C167.293 20.308 167.517 20.63 167.517 21.414V26.412H168.903V21.092C168.903 19.706 168.231 19.132 166.845 19.132C165.977 19.132 165.095 19.454 164.507 19.86H164.437V16.192H163.065V26.412ZM173.745 26.538C174.935 26.538 175.761 26.174 176.209 25.852V24.886C175.551 25.18 174.935 25.404 173.997 25.404C172.597 25.404 171.799 24.858 171.701 23.22H176.433V22.548C176.433 20.294 175.495 19.132 173.479 19.132C171.757 19.132 170.287 20.294 170.287 22.744V22.926C170.287 25.166 171.435 26.538 173.745 26.538ZM173.423 20.224C174.459 20.224 174.991 20.77 174.991 22.212H171.701C171.813 20.616 172.667 20.224 173.423 20.224Z" fill="url(#paint4_linear)" fill-opacity="0.5"/>
<defs>
<linearGradient id="paint0_linear" x1="-7.6741e-07" y1="35" x2="206" y2="35" gradientUnits="userSpaceOnUse">
<stop stop-color="#6B40FF"/>
<stop offset="0.494792" stop-color="#1F1AFF"/>
<stop offset="0.494892" stop-color="#221EFF"/>
<stop offset="1" stop-color="#8099FF"/>
</linearGradient>
<linearGradient id="paint1_linear" x1="48.3707" y1="23.5731" x2="56.1936" y2="23.5731" gradientUnits="userSpaceOnUse">
<stop stop-color="#6B40FF"/>
<stop offset="0.494792" stop-color="#1F1AFF"/>
<stop offset="0.494892" stop-color="#221EFF"/>
<stop offset="1" stop-color="#8099FF"/>
</linearGradient>
<linearGradient id="paint2_linear" x1="32.771" y1="42.447" x2="65.229" y2="42.447" gradientUnits="userSpaceOnUse">
<stop stop-color="#6B40FF"/>
<stop offset="0.494792" stop-color="#1F1AFF"/>
<stop offset="0.494892" stop-color="#221EFF"/>
<stop offset="1" stop-color="#8099FF"/>
</linearGradient>
<linearGradient id="paint3_linear" x1="79" y1="44" x2="177" y2="44" gradientUnits="userSpaceOnUse">
<stop stop-color="#6B40FF"/>
<stop offset="0.494792" stop-color="#1F1AFF"/>
<stop offset="0.494892" stop-color="#221EFF"/>
<stop offset="1" stop-color="#8099FF"/>
</linearGradient>
<linearGradient id="paint4_linear" x1="74" y1="22.5" x2="177" y2="22.5" gradientUnits="userSpaceOnUse">
<stop stop-color="#6B40FF"/>
<stop offset="0.494792" stop-color="#1F1AFF"/>
<stop offset="0.494892" stop-color="#221EFF"/>
<stop offset="1" stop-color="#8099FF"/>
</linearGradient>
</defs>
</svg>
